<?xml version="1.0" encoding="UTF-8" standalone="no"?>
<!-- Created with Inkscape (http://www.inkscape.org/) -->

<svg
   xmlns:dc="http://purl.org/dc/elements/1.1/"
   xmlns:cc="http://creativecommons.org/ns#"
   xmlns:rdf="http://www.w3.org/1999/02/22-rdf-syntax-ns#"
   xmlns:svg="http://www.w3.org/2000/svg"
   xmlns="http://www.w3.org/2000/svg"
   xmlns:xlink="http://www.w3.org/1999/xlink"
   xmlns:sodipodi="http://sodipodi.sourceforge.net/DTD/sodipodi-0.dtd"
   xmlns:inkscape="http://www.inkscape.org/namespaces/inkscape"
   width="128"
   height="64"
   viewBox="0 0 128 64"
   id="svg2"
   version="1.1"
   inkscape:version="0.91 r13725"
   sodipodi:docname="tank2.svg">
  <sodipodi:namedview
     pagecolor="#ffffff"
     bordercolor="#666666"
     borderopacity="1"
     objecttolerance="10"
     gridtolerance="10"
     guidetolerance="10"
     inkscape:pageopacity="0"
     inkscape:pageshadow="2"
     inkscape:window-width="1920"
     inkscape:window-height="976"
     id="namedview3386"
     showgrid="true"
     inkscape:zoom="2.2345679"
     inkscape:cx="83.048188"
     inkscape:cy="-7.2510634"
     inkscape:window-x="-8"
     inkscape:window-y="-8"
     inkscape:window-maximized="1"
     inkscape:current-layer="tank-template"
     showguides="false">
    <inkscape:grid
       type="xygrid"
       id="grid3454"
       empspacing="16"
       dotted="false" />
  </sodipodi:namedview>
  <metadata
     id="metadata4269">
    <rdf:RDF>
      <cc:Work
         rdf:about="">
        <dc:format>image/svg+xml</dc:format>
        <dc:type
           rdf:resource="http://purl.org/dc/dcmitype/StillImage" />
        <dc:title></dc:title>
      </cc:Work>
    </rdf:RDF>
  </metadata>
  <defs
     id="defs4267">
    <pattern
       inkscape:collect="always"
       xlink:href="#tank-image"
       id="pattern5051"
       patternTransform="translate(-98,-12)" />
    <pattern
       inkscape:collect="always"
       xlink:href="#tank-image"
       id="pattern5000"
       patternTransform="translate(-60,-12)" />
    <pattern
       inkscape:collect="always"
       xlink:href="#tank-image"
       id="pattern4998"
       patternTransform="translate(-64,-28)" />
    <pattern
       inkscape:collect="always"
       xlink:href="#tank-image"
       id="pattern4996"
       patternTransform="translate(-58,-22)" />
    <pattern
       inkscape:collect="always"
       xlink:href="#tank-image"
       id="pattern4994"
       patternTransform="translate(-68,-22)" />
    <pattern
       id="tank-image"
       patternUnits="userSpaceOnUse"
       width="256"
       height="128">
      <image
         sodipodi:absref="D:\Dev\Server\WWW\kidoop\Character\Tank\..\..\Character\Tank\img\tank2.png"
         xlink:href="..\..\Character\Tank\img\tank2.png"
         id="image7057"
         height="128"
         width="256" />
    </pattern>
    <linearGradient
       inkscape:collect="always"
       id="blastGradient"
       gradientUnits="userSpaceOnUse">
      <stop
         style="stop-color:#ffee7a;stop-opacity:1;"
         offset="0"
         id="stop5288" />
      <stop
         style="stop-color:#ffe326;stop-opacity:1"
         offset="0.12306377"
         id="stop5290" />
      <stop
         style="stop-color:#ff1f1f;stop-opacity:0.6"
         offset="0.15572052"
         id="stop5292" />
      <stop
         style="stop-color:#ffAAAA;stop-opacity:0.2"
         offset="0.85651869"
         id="stop5294" />
      <stop
         style="stop-color:#AAAAAA;stop-opacity:0"
         offset="1"
         id="stop5296" />
    </linearGradient>
    <radialGradient
       inkscape:collect="always"
       xlink:href="#blastGradient"
       id="radialBlastGradient"
       gradientUnits="userSpaceOnUse"
       cx="0"
       cy="0"
       fx="0"
       fy="0"
       r="12.5" />
    <linearGradient
       id="linearGradient5868"
       inkscape:collect="always">
      <stop
         id="stop5870"
         offset="0"
         style="stop-color:#ffffaf;stop-opacity:0.75813955" />
      <stop
         id="stop5872"
         offset="0.80000001"
         style="stop-color:#ff5f00;stop-opacity:0.0372093" />
      <stop
         id="stop5874"
         offset="1"
         style="stop-color:#fcffb0;stop-opacity:0" />
    </linearGradient>
    <ref
       id="paramCannonAngle"
       param="cannonAngle"
       default="40" />
    <radialGradient
       inkscape:collect="always"
       xlink:href="#linearGradient5868"
       id="radialGradient5866"
       gradientUnits="userSpaceOnUse"
       gradientTransform="matrix(1,0,0,0.95921877,0,0.04798979)"
       cx="6.3189163"
       cy="1.1767616"
       fx="6.3189163"
       fy="1.1767616"
       r="58.195858" />
  </defs>
  <g
     transform="translate(200,0)"
     id="projectile-template"
     style="stroke-width:0.1;stroke-miterlimit:4;stroke-dasharray:none;stroke:none;stroke-opacity:1;fill-opacity:1;">
    <ellipse
       style="opacity:1;fill:url(#radialGradient5866);fill-opacity:1;fill-rule:evenodd;stroke:none;stroke-width:0.1;stroke-linecap:butt;stroke-linejoin:miter;stroke-opacity:1;stroke-miterlimit:4;stroke-dasharray:none"
       id="projectile-fire"
       ry="55.77256"
       rx="58.145859"
       cy="1.1767616"
       cx="6.3189163"
       inkscape:label="projectile-fire" />
    <path
       id="path5060"
       sodipodi:nodetypes="ccc"
       inkscape:connector-curvature="0"
       d="m 4.956277,-3.9563222 0,7.9126 c -13.2167398,0 -13.2167398,-7.9126 0,-7.9126 z"
       style="fill-opacity:0.75813955;fill-rule:evenodd;stroke-width:0.1;stroke-linecap:butt;stroke-linejoin:miter;stroke-opacity:1;enable-background:new;stroke-miterlimit:4;stroke-dasharray:none;stroke:none;fill:#502d16" />
  </g>
  <g
     id="explosion-template"
     transform="translate(400,0)">
    <circle
       style="opacity:1;fill:url(#radialBlastGradient);fill-opacity:1;fill-rule:nonzero;stroke:none;stroke-width:2.5;stroke-linecap:butt;stroke-linejoin:miter;stroke-miterlimit:4;stroke-dasharray:5, 5;stroke-dashoffset:0;stroke-opacity:1"
       class="nohit fade"
       cx="0"
       cy="0"
       id="ellipse5436"
       r="12.5">
      <animate
         attributeType="xml"
         attributeName="r"
         from="4"
         to="12"
         dur="0.3s"
         begin="0s" />
      <animate
         attributeType="xml"
         attributeName="r"
         from="12"
         to="0"
         dur="1s"
         begin="0.3s"
         fill="freeze" />
    </circle>
  </g>
  <g
     class="tank"
     id="tank-template">
    <path
       inkscape:label=""
       inkscape:connector-curvature="0"
       id="tank-body-back"
       d="m -47,7 1,0 0,-1 17,0 0,1 1,0 0,2 2,0 0,1 30,0 0,10 -51,0 z"
       style="fill:url(#pattern4996);fill-opacity:1;fill-rule:evenodd;stroke:none;stroke-width:1px;stroke-linecap:butt;stroke-linejoin:miter;stroke-opacity:1" />
    <path
       inkscape:label=""
       inkscape:connector-curvature="0"
       id="tank-body-front"
       d="m 4,20 39,0 0,-1 1,0 0,-2 -1,0 0,-0.948085 -1,-0.05191 0,-1 -1,0 0,-1 -1,0 0,-1 -1,0 0,-1 -1,0 0,-1 -1,0 0,-1 -33,0 z"
       style="fill:url(#pattern4994);fill-opacity:1;fill-rule:evenodd;stroke:none;stroke-width:1px;stroke-linecap:butt;stroke-linejoin:miter;stroke-opacity:1" />
    <g
       inkscape:label=""
       id="cannon-body"
       class="cannon-body">
      <g
         inkscape:label=""
         id="cannon-rotate"
         class="cannon-rotate">
        <path
           inkscape:label=""
           inkscape:connector-curvature="0"
           id="tank-cannon"
           class="tank-cannon"
           d="m -3,-4 6,0 0,1 9,0 0,1 45,0 0,-1 1,0 0,-1 15,0 0,1 1,0 0,1 10,0 0,-1 9,0 0,1 1,0 0,6 -1,0 0,1 -9,0 0,-1 -9,0 0,1 -1,0 c 0,0 0,1 0,1 L 58,6 58,5 57,5 57,4 12,4 12,5 3,5 3,7 -3,7 Z"
           style="fill:url(#pattern5051);fill-opacity:1;fill-rule:evenodd;stroke:none;stroke-width:1px;stroke-linecap:butt;stroke-linejoin:miter;stroke-opacity:1" />
        <rect
           y="-3.5490074"
           x="91.954117"
           height="9.0753574"
           width="1.9679996"
           id="cannon-tip"
           class="cannon-tip"
           style="opacity:0.3942308;fill:#75791b;fill-opacity:1;stroke:#7a7a39;stroke-width:0;stroke-linecap:round;stroke-linejoin:round;stroke-miterlimit:4;stroke-dasharray:none;stroke-dashoffset:0;stroke-opacity:1" />
        <rect
           style="opacity:0.3942308;fill:#75791b;fill-opacity:1;stroke:#7a7a39;stroke-width:0;stroke-linecap:round;stroke-linejoin:round;stroke-miterlimit:4;stroke-dasharray:none;stroke-dashoffset:0;stroke-opacity:1"
           class="cannon-base"
           id="cannon-base"
           width="1.9679996"
           height="9.0753574"
           x="-2.0458069"
           y="-3.5490074" />
      </g>
      <path
         style="fill:url(#pattern5000);fill-opacity:1;fill-rule:evenodd;stroke:none;stroke-width:1px;stroke-linecap:butt;stroke-linejoin:miter;stroke-opacity:1"
         d="m 25,9 0,-1 1,0 0,-12 -1,0 0,-1 -1,0 0,-1 -13,0 0,-1 -1,0 0,-1 -1,0 0,-1 -18,0 0,1 -1,0 0,1 -1,0 0,1 -13,0 0,1 -1,0 0,1 -1,0 0,12 1,0 0,1 z"
         id="tank-cannon-turret"
         class="tank-cannon-turret"
         inkscape:connector-curvature="0"
         inkscape:label="" />
    </g>
    <path
       inkscape:label=""
       sodipodi:nodetypes="ccccccccccccccccccccccccccccccccccccccccccccccccccccccccccccccccccccccccccc"
       inkscape:connector-curvature="0"
       d="m 62,25 -1,0 M 60.9802,24.96044 61,24 l -1,0 0,-1 -1,0 0,-1 -1,0 0,-1 -116,0 0,0 m 0,0 0,1 -1,0 0,1 -1,0 0,1 -1,0 0,1 -1,0 0,1 -1,0 0,16 1,0 0,1 1,0 0,1 1,0 0,1 1,0 0,1 1,0 0,1 1,0 0,1 1,0 0,1 1,0 0,1 1,0 0,1 1,0 0,1 1,0 0,1 1,0 0,1 101,0 0,-1 1,0 0,-1 1,0 0,-1 1,0 0,-1 1,0 0,-1 1,0 0,-1 1,0 0,-1 1,0 0,-1 1,0 0,-1 1,0 0,-1 1,0 0,-1 1,0 0,-1 1,0 0,-17 0,0"
       style="fill:url(#pattern4998);fill-opacity:1;fill-rule:evenodd;stroke:none;stroke-width:1px;stroke-linecap:butt;stroke-linejoin:miter;stroke-opacity:1"
       id="tank-body-wheels"
       class="tank-body-wheels" />
  </g>
</svg>
