<?xml version="1.0" encoding="UTF-8" standalone="no"?>
<!-- Created with Inkscape (http://www.inkscape.org/) -->

<svg
   xmlns:dc="http://purl.org/dc/elements/1.1/"
   xmlns:cc="http://creativecommons.org/ns#"
   xmlns:rdf="http://www.w3.org/1999/02/22-rdf-syntax-ns#"
   xmlns:svg="http://www.w3.org/2000/svg"
   xmlns="http://www.w3.org/2000/svg"
   xmlns:xlink="http://www.w3.org/1999/xlink"
   xmlns:sodipodi="http://sodipodi.sourceforge.net/DTD/sodipodi-0.dtd"
   xmlns:inkscape="http://www.inkscape.org/namespaces/inkscape"
   width="64"
   height="32"
   viewBox="0 0 64 32"
   id="svg2"
   version="1.1"
   inkscape:version="0.91 r13725"
   sodipodi:docname="tank.svg">
  <script
     xlink:href="../../Traits/Physics/physics-methods.js"
     id="script3339" />
  <script
     xlink:href="tank.js"
     id="script3341" />
  <g
     inkscape:label="tank"
     inkscape:groupmode="layer"
     onclick="wut"
     id="g4235">
    <path
       id="path5534-1"
       style="display:inline;overflow:visible;visibility:visible;fill:#000000;fill-opacity:1;fill-rule:nonzero;stroke:none;stroke-width:1.10000002;stroke-linecap:round;stroke-linejoin:miter;stroke-miterlimit:4;stroke-dasharray:none;stroke-dashoffset:0;stroke-opacity:1;marker:none"
       d="m 18.412211,11.186781 13.982225,0 4.291574,-2.2737791 0,-6.4120064 -27.5029802,-2.5011453 0,8.3674493 9.2291812,1.7735555 0,1.045926 z"
       inkscape:connector-curvature="0" />
    <path
       id="path5536-3"
       style="display:inline;overflow:visible;visibility:visible;fill:#000000;fill-opacity:1;fill-rule:nonzero;stroke:none;stroke-width:1.10000002;stroke-linecap:round;stroke-linejoin:miter;stroke-miterlimit:4;stroke-dasharray:none;stroke-dashoffset:0;stroke-opacity:1;marker:none"
       d="M 63.035337,20.034231 0,20.145463 0.01024,8.5947683 l 18.078634,3.9108607 26.303179,0 18.642944,4.911322 c 1.098256,0.437722 1.462275,2.617357 0,2.617357 z"
       inkscape:connector-curvature="0" />
    <path
       id="path1874-3"
       style="fill:#000000;fill-opacity:1;stroke-width:1.10000002;stroke-miterlimit:4;stroke-dasharray:none"
       d="m 45.100157,25.247812 c 0,2.206105 1.811823,3.99607 4.050464,4.0016 2.238645,0.0064 4.059535,-1.775437 4.070781,-3.98153 0.0119,-2.20608 -1.791431,-4.004992 -4.030015,-4.021619 -2.238583,-0.01754 -4.06854,1.755328 -4.091032,3.961344"
       inkscape:connector-curvature="0" />
    <path
       id="path1876-2"
       style="fill:#000000;fill-opacity:1;fill-rule:evenodd;stroke:none;stroke-width:1.10000002;stroke-linecap:butt;stroke-linejoin:miter;stroke-miterlimit:4;stroke-dasharray:none;stroke-opacity:1"
       d="m 35.960584,25.247812 c 0,2.206105 1.811822,3.99607 4.050465,4.0016 2.238643,0.0064 4.059534,-1.775437 4.07078,-3.98153 0.0119,-2.20608 -1.79143,-4.004992 -4.030015,-4.021619 -2.238583,-0.01754 -4.068541,1.755328 -4.091033,3.961344"
       inkscape:connector-curvature="0" />
    <path
       id="path1880-3"
       style="fill:#000000;fill-opacity:1;fill-rule:evenodd;stroke:none;stroke-width:1.10000002;stroke-linecap:butt;stroke-linejoin:miter;stroke-miterlimit:4;stroke-dasharray:none;stroke-opacity:1"
       d="m 26.981265,25.247812 c 0,2.206105 1.81182,3.99607 4.050464,4.0016 2.238643,0.0064 4.059532,-1.775437 4.070777,-3.98153 0.0119,-2.20608 -1.791428,-4.004992 -4.030012,-4.021619 -2.238583,-0.01754 -4.068541,1.755328 -4.091031,3.961344"
       inkscape:connector-curvature="0" />
    <path
       id="path3511-3"
       style="fill:#000000;fill-opacity:1;fill-rule:evenodd;stroke:none;stroke-width:1.10000002;stroke-linecap:butt;stroke-linejoin:miter;stroke-miterlimit:4;stroke-dasharray:none;stroke-opacity:1"
       d="m 17.788115,25.247812 c 0,2.206105 1.811822,3.99607 4.050465,4.0016 2.238644,0.0064 4.059536,-1.775437 4.070781,-3.98153 0.0119,-2.20608 -1.791432,-4.004992 -4.030015,-4.021619 -2.238584,-0.01754 -4.068542,1.755328 -4.091032,3.961344"
       inkscape:connector-curvature="0" />
    <path
       id="path1884-2"
       style="fill:#000000;fill-opacity:1;fill-rule:evenodd;stroke:none;stroke-width:1.10000002;stroke-linecap:butt;stroke-linejoin:miter;stroke-miterlimit:4;stroke-dasharray:none;stroke-opacity:1"
       d="m 8.6662695,25.457079 c 0,2.206118 1.8118175,3.99607 4.0504605,4.001613 2.238642,0.0064 4.059533,-1.775437 4.070777,-3.98153 0.0119,-2.20608 -1.791429,-4.004992 -4.030013,-4.021619 -2.238582,-0.01562 -4.0685429,1.755328 -4.0910325,3.961331"
       inkscape:connector-curvature="0" />
    <path
       id="path1886-6"
       style="fill:#000000;fill-opacity:1;fill-rule:evenodd;stroke:none;stroke-width:1.10000002;stroke-linecap:butt;stroke-linejoin:miter;stroke-miterlimit:4;stroke-dasharray:none;stroke-opacity:1"
       d="m 3.0363572,23.597418 c 0,1.257536 1.0327654,2.27785 2.3088448,2.281011 1.2760934,0.0038 2.3140429,-1.012044 2.3204557,-2.269568 0.0064,-1.25751 -1.0211559,-2.282931 -2.2972109,-2.292416 -1.276041,-0.01024 -2.3191616,1.000589 -2.3319872,2.258048"
       inkscape:connector-curvature="0" />
    <path
       id="path1888-4"
       style="fill:#000000;fill-opacity:1;fill-rule:evenodd;stroke:none;stroke-width:1.10000002;stroke-linecap:butt;stroke-linejoin:miter;stroke-miterlimit:4;stroke-dasharray:none;stroke-opacity:1"
       d="m 54.16871,23.597418 c 0,1.257536 1.032762,2.27785 2.308849,2.281011 1.276088,0.0038 2.314038,-1.012044 2.320452,-2.269568 0.0059,-1.25751 -1.021158,-2.282931 -2.297207,-2.292416 -1.276049,-0.01024 -2.319164,1.000589 -2.331994,2.258048"
       inkscape:connector-curvature="0" />
    <path
       id="cannon"
       style="display:inline;overflow:visible;visibility:visible;fill:#000000;fill-opacity:1;fill-rule:nonzero;stroke:none;stroke-width:1.10000002;stroke-linecap:round;stroke-linejoin:miter;stroke-miterlimit:4;stroke-dasharray:none;stroke-dashoffset:0;stroke-opacity:1;marker:none"
       d="m 63.81029,3.760954 0,2.651059 -26.37168,0.883661 0,-3.574899 26.37168,0.04019 z"
       inkscape:connector-curvature="0"
       sodipodi:nodetypes="cccccc" />
    <path
       id="cannon-7"
       style="display:inline;overflow:visible;visibility:visible;fill:#000000;fill-opacity:1;fill-rule:nonzero;stroke:none;stroke-width:1.10000002;stroke-linecap:round;stroke-linejoin:miter;stroke-miterlimit:4;stroke-dasharray:none;stroke-dashoffset:0;stroke-opacity:1;marker:none"
       d="m 59.3214,21.204223 1.89325,0.0855 c 1.0544,2.584832 0.17621,4.949991 -2.72233,6.700775 -3.26629,1.972966 -7.19109,3.872819 -8.32784,3.902208 l -38.619909,0.01152 C 10.407807,31.874786 6.483002,29.974997 3.216731,28.002043 0.318192,26.251247 -0.560014,23.879983 0.494396,21.295138 l 1.893256,-0.07923 c -0.56974,2.418483 -1.061463,4.05079 2.487226,5.706957 2.904454,1.355532 5.974518,2.969216 6.453134,3.066892 l 39.053008,-0.0051 c 0.47861,-0.09779 3.54251,-1.717478 6.44696,-3.072985 3.54869,-1.656179 3.06315,-3.288499 2.49342,-5.706957 z"
       inkscape:connector-curvature="0"
       sodipodi:nodetypes="cccccsccsccscc" />
    <rect
       style="fill:#75791b;fill-opacity:1;stroke:#7a7a39;stroke-width:0;stroke-linecap:round;stroke-linejoin:round;stroke-miterlimit:4;stroke-dasharray:none;stroke-dashoffset:0;stroke-opacity:1"
       id="cannon-tip"
       width="0.90624213"
       height="2.5937421"
       x="62.531254"
       y="3.7500038" />
  </g>
</svg>
