<?xml version="1.0" encoding="UTF-8" standalone="no"?>
<!-- Created with Inkscape (http://www.inkscape.org/) -->

<svg
   xmlns:dc="http://purl.org/dc/elements/1.1/"
   xmlns:cc="http://creativecommons.org/ns#"
   xmlns:rdf="http://www.w3.org/1999/02/22-rdf-syntax-ns#"
   xmlns:svg="http://www.w3.org/2000/svg"
   xmlns="http://www.w3.org/2000/svg"
   xmlns:xlink="http://www.w3.org/1999/xlink"
   xmlns:sodipodi="http://sodipodi.sourceforge.net/DTD/sodipodi-0.dtd"
   xmlns:inkscape="http://www.inkscape.org/namespaces/inkscape"
   width="128"
   height="64"
   viewBox="0 0 128 64"
   id="svg2"
   version="1.1"
   inkscape:version="0.91 r13725"
   sodipodi:docname="tank2.svg">
  <sodipodi:namedview
     pagecolor="#ffffff"
     bordercolor="#666666"
     borderopacity="1"
     objecttolerance="10"
     gridtolerance="10"
     guidetolerance="10"
     inkscape:pageopacity="0"
     inkscape:pageshadow="2"
     inkscape:window-width="1920"
     inkscape:window-height="976"
     id="namedview3386"
     showgrid="false"
     inkscape:zoom="6.3203125"
     inkscape:cx="46.86088"
     inkscape:cy="71.092231"
     inkscape:window-x="-8"
     inkscape:window-y="-8"
     inkscape:window-maximized="1"
     inkscape:current-layer="cannon-rotate" />
  <metadata
     id="metadata4269">
    <rdf:RDF>
      <cc:Work
         rdf:about="">
        <dc:format>image/svg+xml</dc:format>
        <dc:type
           rdf:resource="http://purl.org/dc/dcmitype/StillImage" />
        <dc:title />
      </cc:Work>
    </rdf:RDF>
  </metadata>
  <defs
     id="defs4267">
    <linearGradient
       id="linearGradient5868"
       inkscape:collect="always">
      <stop
         id="stop5870"
         offset="0"
         style="stop-color:#ffffaf;stop-opacity:0.75813955" />
      <stop
         id="stop5872"
         offset="0.80000001"
         style="stop-color:#ff5f00;stop-opacity:0.0372093" />
      <stop
         id="stop5874"
         offset="1"
         style="stop-color:#fcffb0;stop-opacity:0" />
    </linearGradient>
    <ref
       id="paramCannonAngle"
       param="cannonAngle"
       default="40" />
    <pattern
       inkscape:collect="always"
       xlink:href="#tank-image"
       id="pattern3894"
       patternTransform="translate(-95.68356,-14.31644)" />
    <pattern
       inkscape:collect="always"
       xlink:href="#tank-image"
       id="pattern3892"
       patternTransform="translate(-61.68356,-24.31644)" />
    <pattern
       inkscape:collect="always"
       xlink:href="#tank-image"
       id="pattern3890"
       patternTransform="translate(-71.68356,-24.31644)" />
    <pattern
       inkscape:collect="always"
       xlink:href="#tank-image"
       id="pattern3888"
       patternTransform="translate(-61.68356,-33.68356)" />
    <pattern
       inkscape:collect="always"
       xlink:href="#tank-image"
       id="pattern3886"
       patternTransform="translate(-59.68356,-12.94932)" />
    <pattern
       id="tank-image"
       patternUnits="userSpaceOnUse"
       width="256"
       height="128"
       patternTransform="translate(-19.68356,-12.31644)">
      <image
         sodipodi:absref="D:\Dev\Server\WWW\kidoop\Character\Tank\..\..\Character\Tank\img\tank2.png"
         xlink:href="..\..\Character\Tank\img\tank2.png"
         x="0"
         y="0"
         width="256"
         height="128"
         id="image7057" />
    </pattern>
    <radialGradient
       inkscape:collect="always"
       xlink:href="#linearGradient5868"
       id="radialGradient5866"
       gradientUnits="userSpaceOnUse"
       gradientTransform="matrix(1,0,0,0.95921877,0,0.04798979)"
       cx="6.3189163"
       cy="1.1767616"
       fx="6.3189163"
       fy="1.1767616"
       r="58.195858" />
  </defs>
  <g
     class="tank"
     id="tank-template">
    <path
       style="fill:url(#pattern3888);fill-opacity:1"
       d="m -54.462448,42.039535 -6.221112,-6.276906 0,-7.536003 c 0,-6.951363 0.217589,-7.744467 2.804719,-10.223095 l 2.804719,-2.687091 57.520967,0 57.520965,0 2.17432,2.314451 c 1.85668,1.97635 2.17431,3.477917 2.17431,10.278889 l 0,7.964437 -6.27691,6.221111 -6.2769,6.221112 -50.001984,0 -50.001983,0 -6.221111,-6.276905 z"
       id="path7271"
       inkscape:connector-curvature="0" />
    <path
       style="fill:url(#pattern3892);fill-opacity:1"
       d="m -50.47925,10.93356 0.29569,-6.75 8.385948,-0.292639 c 7.375767,-0.257387 8.615185,-0.04658 10.288955,1.75 1.752449,1.881033 3.086667,2.042639 16.864052,2.042639 l 14.961045,0 0,5 0,5 -25.54569,0 -25.54569,0 0.29569,-6.75 z"
       id="path7209"
       inkscape:connector-curvature="0" />
    <path
       style="fill:url(#pattern3890);fill-opacity:1"
       d="m 0.31644,12.68356 0,-5 16.297052,0 16.297048,0 3.81776,3.909733 c 2.09976,2.150354 3.51453,4.400354 3.14393,5 -0.44902,0.726529 -7.15979,1.090267 -20.114807,1.090267 l -19.440983,0 0,-5 z"
       id="path7207"
       inkscape:connector-curvature="0" />
    <g
       class="cannon-body"
       id="cannon-body">
      <g
         class="cannon-rotate"
         id="cannon-rotate">
        <path
           inkscape:connector-curvature="0"
           id="path7195"
           d="m -0.68356,-0.914627 0,-5.598187 6.25,0.63471 c 3.4375,0.34909 8.08261,1.10439 10.32247,1.678442 5.81951,1.491483 41.94249,0.773013 43.57959,-0.866778 1.93738,-1.940572 14.75229,-1.646535 17.00278,0.390128 1.59045,1.43934 2.52102,1.489732 7.60127,0.411628 3.18393,-0.675675 7.10059,-1.076232 8.7037,-0.890128 2.60524,0.302441 2.91237,0.710026 2.89234,3.838372 l -0.0224,3.5 -9.07255,-0.303893 c -5.60559,-0.187764 -9.32145,0.09884 -9.72389,0.75 C 75.97119,4.0512 61.02698,3.9941 59.59662,2.563747 57.9522,0.919325 6.1159,1.785176 5.55549,3.466426 5.33234,4.135849 3.837273,4.68356 2.233107,4.68356 c -2.874888,0 -2.916667,-0.08019 -2.916667,-5.598187 z"
           style="fill:url(#pattern3894);fill-opacity:1" />
        <rect
           y="-6.2041359"
           x="94.052597"
           height="9.0753574"
           width="1.9679996"
           id="cannon-tip"
           class="cannon-tip"
           style="opacity:0.3942308;fill:#75791b;fill-opacity:1;stroke:#7a7a39;stroke-width:0;stroke-linecap:round;stroke-linejoin:round;stroke-miterlimit:4;stroke-dasharray:none;stroke-dashoffset:0;stroke-opacity:1" />
        <rect
           style="opacity:0.3942308;fill:#75791b;fill-opacity:1;stroke:#7a7a39;stroke-width:0;stroke-linecap:round;stroke-linejoin:round;stroke-miterlimit:4;stroke-dasharray:none;stroke-dashoffset:0;stroke-opacity:1"
           class="cannon-tip"
           id="cannon-base"
           width="1.9679996"
           height="9.0753574"
           x="0.052597046"
           y="-6.2041359" />
      </g>
      <path
         inkscape:connector-curvature="0"
         id="path7205"
         d="M -25.000108,7.400799 C -26.169484,6.231423 -25.74856,-4.48432 -24.48356,-5.74932 c 0.674331,-0.674331 3.906123,-1.2 7.377555,-1.2 4.27121,0 6.561719,-0.462888 7.422445,-1.5 0.933104,-1.124321 3.43763,-1.5 10,-1.5 6.56237,0 9.066896,0.375679 10,1.5 0.86377,1.040784 3.15985,1.5 7.5,1.5 7.78221,0 8.70185,0.959872 8.30242,8.665627 L 25.81644,7.55068 0.749892,7.817465 c -13.786601,0.146732 -25.374101,-0.04077 -25.75,-0.416666 z"
         style="fill:url(#pattern3886);fill-opacity:1" />
    </g>
  </g>
  <g
     transform="translate(200,0)"
     id="projectile-template"
     style="stroke-width:0.1;stroke-miterlimit:4;stroke-dasharray:none;stroke:none;stroke-opacity:1;fill-opacity:1;">
    <ellipse
       style="opacity:1;fill:url(#radialGradient5866);fill-opacity:1;fill-rule:evenodd;stroke:none;stroke-width:0.1;stroke-linecap:butt;stroke-linejoin:miter;stroke-opacity:1;stroke-miterlimit:4;stroke-dasharray:none"
       id="projectile-fire"
       ry="55.77256"
       rx="58.145859"
       cy="1.1767616"
       cx="6.3189163"
       inkscape:label="projectile-fire" />
    <path
       id="path5060"
       sodipodi:nodetypes="ccc"
       inkscape:connector-curvature="0"
       d="m 4.956277,-3.9563222 0,7.9126 c -13.2167398,0 -13.2167398,-7.9126 0,-7.9126 z"
       style="fill-opacity:0.75813955;fill-rule:evenodd;stroke-width:0.1;stroke-linecap:butt;stroke-linejoin:miter;stroke-opacity:1;enable-background:new;stroke-miterlimit:4;stroke-dasharray:none;stroke:none;fill:#502d16" />
  </g>
</svg>
