<?xml version="1.0" encoding="UTF-8" standalone="no"?>
<!-- Created with Inkscape (http://www.inkscape.org/) -->

<svg
   xmlns:osb="http://www.openswatchbook.org/uri/2009/osb"
   xmlns:dc="http://purl.org/dc/elements/1.1/"
   xmlns:cc="http://creativecommons.org/ns#"
   xmlns:rdf="http://www.w3.org/1999/02/22-rdf-syntax-ns#"
   xmlns:svg="http://www.w3.org/2000/svg"
   xmlns="http://www.w3.org/2000/svg"
   xmlns:xlink="http://www.w3.org/1999/xlink"
   xmlns:sodipodi="http://sodipodi.sourceforge.net/DTD/sodipodi-0.dtd"
   xmlns:inkscape="http://www.inkscape.org/namespaces/inkscape"
   width="128"
   height="64"
   viewBox="0 0 128 64"
   id="svg2"
   version="1.1"
   inkscape:version="0.91 r13725"
   sodipodi:docname="tank2.svg">
  <sodipodi:namedview
     pagecolor="#ffffff"
     bordercolor="#666666"
     borderopacity="1"
     objecttolerance="10"
     gridtolerance="10"
     guidetolerance="10"
     inkscape:pageopacity="0"
     inkscape:pageshadow="2"
     inkscape:window-width="1920"
     inkscape:window-height="976"
     id="namedview3386"
     showgrid="false"
     inkscape:zoom="3.1601563"
     inkscape:cx="47.685378"
     inkscape:cy="0.27217735"
     inkscape:window-x="-8"
     inkscape:window-y="-8"
     inkscape:window-maximized="1"
     inkscape:current-layer="tank-template" />
  <metadata
     id="metadata4269">
    <rdf:RDF>
      <cc:Work
         rdf:about="">
        <dc:format>image/svg+xml</dc:format>
        <dc:type
           rdf:resource="http://purl.org/dc/dcmitype/StillImage" />
        <dc:title />
      </cc:Work>
    </rdf:RDF>
  </metadata>
  <defs
     id="defs4267">
    <pattern
       inkscape:collect="always"
       xlink:href="#tank-image"
       id="pattern7353"
       patternTransform="translate(-19.68356,-12.31644)" />
    <pattern
       inkscape:collect="always"
       xlink:href="#tank-image"
       id="pattern7351"
       patternTransform="translate(-19.68356,-12.31644)" />
    <pattern
       inkscape:collect="always"
       xlink:href="#tank-image"
       id="pattern7349"
       patternTransform="translate(-19.68356,-12.31644)" />
    <pattern
       inkscape:collect="always"
       xlink:href="#tank-image"
       id="pattern7347"
       patternTransform="translate(-19.68356,-12.31644)" />
    <pattern
       inkscape:collect="always"
       xlink:href="#tank-image"
       id="pattern7345"
       patternTransform="translate(-19.68356,-12.31644)" />
    <pattern
       inkscape:collect="always"
       xlink:href="#tank-image"
       id="pattern7343"
       patternTransform="translate(-19.68356,-12.31644)" />
    <pattern
       inkscape:collect="always"
       xlink:href="#tank-image"
       id="pattern7341"
       patternTransform="translate(-19.68356,-12.31644)" />
    <pattern
       inkscape:collect="always"
       xlink:href="#tank-image"
       id="pattern7339"
       patternTransform="translate(-19.68356,-12.31644)" />
    <pattern
       inkscape:collect="always"
       xlink:href="#tank-image"
       id="pattern7337"
       patternTransform="translate(-19.68356,-12.31644)" />
    <pattern
       inkscape:collect="always"
       xlink:href="#tank-image"
       id="pattern7335"
       patternTransform="translate(-19.68356,-12.31644)" />
    <pattern
       inkscape:collect="always"
       xlink:href="#tank-image"
       id="pattern7333"
       patternTransform="translate(-19.68356,-12.31644)" />
    <pattern
       inkscape:collect="always"
       xlink:href="#tank-image"
       id="pattern7331"
       patternTransform="translate(-19.68356,-12.31644)" />
    <pattern
       inkscape:collect="always"
       xlink:href="#tank-image"
       id="pattern7329"
       patternTransform="translate(-19.68356,-12.31644)" />
    <pattern
       inkscape:collect="always"
       xlink:href="#tank-image"
       id="pattern7327"
       patternTransform="translate(-19.68356,-12.31644)" />
    <pattern
       inkscape:collect="always"
       xlink:href="#tank-image"
       id="pattern7325"
       patternTransform="translate(-19.68356,-12.31644)" />
    <pattern
       inkscape:collect="always"
       xlink:href="#tank-image"
       id="pattern7323"
       patternTransform="translate(-19.68356,-12.31644)" />
    <pattern
       inkscape:collect="always"
       xlink:href="#tank-image"
       id="pattern7321"
       patternTransform="translate(-19.68356,-12.31644)" />
    <pattern
       inkscape:collect="always"
       xlink:href="#tank-image"
       id="pattern7319"
       patternTransform="translate(-19.68356,-12.31644)" />
    <pattern
       inkscape:collect="always"
       xlink:href="#tank-image"
       id="pattern7317"
       patternTransform="translate(-19.68356,-12.31644)" />
    <pattern
       inkscape:collect="always"
       xlink:href="#tank-image"
       id="pattern7315"
       patternTransform="translate(-19.68356,-12.31644)" />
    <pattern
       inkscape:collect="always"
       xlink:href="#tank-image"
       id="pattern7313"
       patternTransform="translate(-19.68356,-12.31644)" />
    <pattern
       inkscape:collect="always"
       xlink:href="#tank-image"
       id="pattern7311"
       patternTransform="translate(-19.68356,-12.31644)" />
    <pattern
       inkscape:collect="always"
       xlink:href="#tank-image"
       id="pattern7309"
       patternTransform="translate(-19.68356,-12.31644)" />
    <pattern
       inkscape:collect="always"
       xlink:href="#tank-image"
       id="pattern7307"
       patternTransform="translate(-19.68356,-12.31644)" />
    <pattern
       inkscape:collect="always"
       xlink:href="#tank-image"
       id="pattern7305"
       patternTransform="translate(-19.68356,-12.31644)" />
    <pattern
       inkscape:collect="always"
       xlink:href="#tank-image"
       id="pattern7303"
       patternTransform="translate(-19.68356,-12.31644)" />
    <pattern
       inkscape:collect="always"
       xlink:href="#tank-image"
       id="pattern7301"
       patternTransform="translate(-19.68356,-12.31644)" />
    <pattern
       inkscape:collect="always"
       xlink:href="#tank-image"
       id="pattern7299"
       patternTransform="translate(-19.68356,-12.31644)" />
    <pattern
       inkscape:collect="always"
       xlink:href="#tank-image"
       id="pattern7297"
       patternTransform="translate(-19.68356,-12.31644)" />
    <pattern
       inkscape:collect="always"
       xlink:href="#tank-image"
       id="pattern7295"
       patternTransform="translate(-19.68356,-12.31644)" />
    <pattern
       inkscape:collect="always"
       xlink:href="#tank-image"
       id="pattern7293"
       patternTransform="translate(-19.68356,-12.31644)" />
    <pattern
       inkscape:collect="always"
       xlink:href="#tank-image"
       id="pattern7291"
       patternTransform="translate(-19.68356,-12.31644)" />
    <pattern
       inkscape:collect="always"
       xlink:href="#tank-image"
       id="pattern7289"
       patternTransform="translate(-19.68356,-12.31644)" />
    <pattern
       inkscape:collect="always"
       xlink:href="#tank-image"
       id="pattern7287"
       patternTransform="translate(-19.68356,-12.31644)" />
    <pattern
       inkscape:collect="always"
       xlink:href="#tank-image"
       id="pattern7285"
       patternTransform="translate(-19.68356,-12.31644)" />
    <pattern
       inkscape:collect="always"
       xlink:href="#tank-image"
       id="pattern7283"
       patternTransform="translate(-19.68356,-12.31644)" />
    <pattern
       inkscape:collect="always"
       xlink:href="#tank-image"
       id="pattern7281"
       patternTransform="translate(-19.68356,-12.31644)" />
    <pattern
       inkscape:collect="always"
       xlink:href="#tank-image"
       id="pattern7279"
       patternTransform="translate(-19.68356,-12.31644)" />
    <pattern
       inkscape:collect="always"
       xlink:href="#tank-image"
       id="pattern7277"
       patternTransform="translate(-19.68356,-12.31644)" />
    <pattern
       inkscape:collect="always"
       xlink:href="#tank-image"
       id="pattern7275"
       patternTransform="translate(-19.68356,-12.31644)" />
    <pattern
       inkscape:collect="always"
       xlink:href="#tank-image"
       id="pattern7273"
       patternTransform="translate(-19.68356,-12.31644)" />
    <linearGradient
       id="linearGradient7141"
       osb:paint="solid">
      <stop
         style="stop-color:#000000;stop-opacity:1;"
         offset="0"
         id="stop7143" />
    </linearGradient>
    <linearGradient
       id="linearGradient7092"
       osb:paint="solid">
      <stop
         style="stop-color:#ff8383;stop-opacity:1;"
         offset="0"
         id="stop7094" />
    </linearGradient>
    <ref
       id="paramCannonAngle"
       param="cannonAngle"
       default="40" />
    <inkscape:perspective
       sodipodi:type="inkscape:persp3d"
       inkscape:vp_x="0 : 16 : 1"
       inkscape:vp_y="0 : 1000 : 0"
       inkscape:vp_z="64 : 16 : 1"
       inkscape:persp3d-origin="32 : 10.666667 : 1"
       id="perspective4216" />
    <pattern
       id="tank-image"
       patternUnits="userSpaceOnUse"
       width="256"
       height="128">
      <image
         sodipodi:absref="D:\Dev\Server\WWW\kidoop\Character\Tank\..\..\Character\Tank\img\tank2.png"
         xlink:href="..\..\Character\Tank\img\tank2.png"
         id="image7057"
         height="128"
         width="256"
         y="0"
         x="0" />
    </pattern>
    <pattern
       patternUnits="userSpaceOnUse"
       width="256"
       height="128"
       patternTransform="translate(-74.363411,-107.27318)"
       id="pattern7102">
      <image
         sodipodi:absref="D:\Dev\Server\WWW\kidoop\Character\Tank\..\..\Character\Tank\img\tank2.png"
         xlink:href="..\..\Character\Tank\img\tank2.png"
         id="image7100"
         height="128"
         width="256"
         y="0"
         x="0" />
    </pattern>
  </defs>
  <clipPath
     clipPathUnits="userSpaceOnUse"
     id="clipPath3506">
    <path
       sodipodi:nodetypes="scssssssscssscss"
       inkscape:connector-curvature="0"
       id="path3508"
       d="m -2.6446586,0.522724 0,-5.598187 6.25,0.634709 c 3.4375,0.349086 8.0110726,1.741281 10.3224716,1.678442 5.414729,-0.147209 41.942489,0.773013 43.579589,-0.866778 1.93738,-1.940572 14.75229,-1.646535 17.00278,0.390128 1.59045,1.43934 2.52102,1.489732 7.60127,0.411628 3.18393,-0.675675 7.10059,-1.076233 8.7037,-0.890128 2.60524,0.302442 2.91237,0.710026 2.89234,3.838372 l -0.0224,3.5 -9.07255,-0.303893 c -5.60559,-0.187764 -9.32145,0.09884 -9.72389,0.75 C 74.010092,5.48855 59.065882,5.43145 57.635522,4.001097 55.991102,2.356675 4.1548014,3.222526 3.5943914,4.903776 c -0.22315,0.669423 -1.718217,1.217133 -3.322383,1.217134 -2.874887,0 -2.916666,-0.08019 -2.916667,-5.598186 z"
       style="fill:#000000" />
  </clipPath>
  <clipPath
     clipPathUnits="userSpaceOnUse"
     id="clipPath3510">
    <path
       inkscape:connector-curvature="0"
       id="path3512"
       d="m -22.961208,7.47103 c -1.16937,-1.169376 -0.74845,-11.885119 0.51655,-13.150118 0.67433,-0.674332 3.90613,-1.200001 7.37756,-1.200001 4.27121,0 6.56172,-0.462889 7.42244,-1.5 0.93311,-1.124321 3.43763,-1.5 10,-1.5 6.56237,0 9.066897,0.375679 10,1.5 0.863774,1.040784 3.159853,1.5 7.5,1.5 7.782205,0 8.701845,0.959872 8.302422,8.665627 L 27.855343,7.620911 2.788792,7.887696 c -13.7866,0.146732 -25.3741,-0.04077 -25.75,-0.416666 z"
       style="fill:#000000" />
  </clipPath>
  <clipPath
     clipPathUnits="userSpaceOnUse"
     id="clipPath3361">
    <path
       inkscape:connector-curvature="0"
       id="path3363"
       d="m -46.440338,12.370911 0.29568,-6.75 8.38595,-0.292639 c 7.37577,-0.257387 8.61518,-0.04658 10.28896,1.75 1.75244,1.881033 3.08666,2.042639 16.86404,2.042639 l 14.96105,0 0,5 0,5 -25.54569,0 -25.54569,0 0.2957,-6.75 z"
       style="fill:#000000" />
  </clipPath>
  <clipPath
     clipPathUnits="userSpaceOnUse"
     id="clipPath3387">
    <path
       clip-path="none"
       style="fill:#000000"
       d="m 4.355342,14.120911 0,-5 16.297052,0 16.297047,0 3.817761,3.909733 c 2.09976,2.150354 3.51453,4.400354 3.14393,5 -0.44902,0.726529 -7.159791,1.090267 -20.114808,1.090267 l -19.440981,0 -1e-6,-5 z"
       id="path3389"
       inkscape:connector-curvature="0" />
  </clipPath>
  <g
     class="tank"
     id="tank-template"
     transfor1m="translate(0,0)"
     transform="translate(-80,0)">
    <path
       style="fill:url(#pattern7353);fill-opacity:1"
       d="m -12.462448,63.406655 -6.221112,-6.276906 0,-7.536003 c 0,-6.951363 0.217589,-7.744467 2.804719,-10.223095 l 2.804719,-2.687091 57.520967,0 57.520965,0 2.17432,2.314451 c 1.85668,1.97635 2.17431,3.477917 2.17431,10.278889 l 0,7.964437 -6.27691,6.221111 -6.2769,6.221112 -50.001984,0 -50.001983,0 -6.221111,-6.276905 z"
       id="path7271"
       inkscape:connector-curvature="0" />
    <path
       style="fill:url(#pattern7351);fill-opacity:1"
       d="m 3.81644,67.68356 c 0.339919,-0.55 0.168034,-1 -0.381966,-1 -0.55,0 -1.278115,0.45 -1.618034,1 -0.339919,0.55 -0.168034,1 0.381966,1 0.55,0 1.278115,-0.45 1.618034,-1 z"
       id="path7269"
       inkscape:connector-curvature="0" />
    <path
       style="fill:url(#pattern7349);fill-opacity:1"
       d="m 8.81644,67.68356 c 0.339919,-0.55 0.168034,-1 -0.381966,-1 -0.55,0 -1.278115,0.45 -1.618034,1 -0.339919,0.55 -0.168034,1 0.381966,1 0.55,0 1.278115,-0.45 1.618034,-1 z"
       id="path7267"
       inkscape:connector-curvature="0" />
    <path
       style="fill:url(#pattern7347);fill-opacity:1"
       d="m 13.81644,67.68356 c 0.339919,-0.55 0.168034,-1 -0.381966,-1 -0.55,0 -1.278115,0.45 -1.618034,1 -0.339919,0.55 -0.168034,1 0.381966,1 0.55,0 1.278115,-0.45 1.618034,-1 z"
       id="path7265"
       inkscape:connector-curvature="0" />
    <path
       style="fill:url(#pattern7345);fill-opacity:1"
       d="m 18.81644,67.68356 c 0.339919,-0.55 0.168034,-1 -0.381966,-1 -0.55,0 -1.278115,0.45 -1.618034,1 -0.339919,0.55 -0.168034,1 0.381966,1 0.55,0 1.278115,-0.45 1.618034,-1 z"
       id="path7263"
       inkscape:connector-curvature="0" />
    <path
       style="fill:url(#pattern7343);fill-opacity:1"
       d="m 23.81644,67.68356 c 0.339919,-0.55 0.168034,-1 -0.381966,-1 -0.55,0 -1.278115,0.45 -1.618034,1 -0.339919,0.55 -0.168034,1 0.381966,1 0.55,0 1.278115,-0.45 1.618034,-1 z"
       id="path7261"
       inkscape:connector-curvature="0" />
    <path
       style="fill:url(#pattern7341);fill-opacity:1"
       d="m 28.81644,67.68356 c 0.339919,-0.55 0.168034,-1 -0.381966,-1 -0.55,0 -1.278115,0.45 -1.618034,1 -0.339919,0.55 -0.168034,1 0.381966,1 0.55,0 1.278115,-0.45 1.618034,-1 z"
       id="path7259"
       inkscape:connector-curvature="0" />
    <path
       style="fill:url(#pattern7339);fill-opacity:1"
       d="m 33.81644,67.68356 c 0.339919,-0.55 0.168034,-1 -0.381966,-1 -0.55,0 -1.278115,0.45 -1.618034,1 -0.339919,0.55 -0.168034,1 0.381966,1 0.55,0 1.278115,-0.45 1.618034,-1 z"
       id="path7257"
       inkscape:connector-curvature="0" />
    <path
       style="fill:url(#pattern7337);fill-opacity:1"
       d="m 38.81644,67.68356 c 0.339919,-0.55 0.168034,-1 -0.381966,-1 -0.55,0 -1.278115,0.45 -1.618034,1 -0.339919,0.55 -0.168034,1 0.381966,1 0.55,0 1.278115,-0.45 1.618034,-1 z"
       id="path7255"
       inkscape:connector-curvature="0" />
    <path
       style="fill:url(#pattern7335);fill-opacity:1"
       d="m 43.81644,67.68356 c 0.339919,-0.55 0.168034,-1 -0.381966,-1 -0.55,0 -1.278115,0.45 -1.618034,1 -0.339919,0.55 -0.168034,1 0.381966,1 0.55,0 1.278115,-0.45 1.618034,-1 z"
       id="path7253"
       inkscape:connector-curvature="0" />
    <path
       style="fill:url(#pattern7333);fill-opacity:1"
       d="m 51.81644,67.68356 c -0.339919,-0.55 -1.068034,-1 -1.618034,-1 -0.55,0 -0.721885,0.45 -0.381966,1 0.339919,0.55 1.068034,1 1.618034,1 0.55,0 0.721885,-0.45 0.381966,-1 z"
       id="path7251"
       inkscape:connector-curvature="0" />
    <path
       style="fill:url(#pattern7331);fill-opacity:1"
       d="m 56.81644,67.68356 c -0.339919,-0.55 -1.068034,-1 -1.618034,-1 -0.55,0 -0.721885,0.45 -0.381966,1 0.339919,0.55 1.068034,1 1.618034,1 0.55,0 0.721885,-0.45 0.381966,-1 z"
       id="path7249"
       inkscape:connector-curvature="0" />
    <path
       style="fill:url(#pattern7329);fill-opacity:1"
       d="m 61.81644,67.68356 c -0.339919,-0.55 -1.068034,-1 -1.618034,-1 -0.55,0 -0.721885,0.45 -0.381966,1 0.339919,0.55 1.068034,1 1.618034,1 0.55,0 0.721885,-0.45 0.381966,-1 z"
       id="path7247"
       inkscape:connector-curvature="0" />
    <path
       style="fill:url(#pattern7327);fill-opacity:1"
       d="m 66.81644,67.68356 c -0.339919,-0.55 -1.068034,-1 -1.618034,-1 -0.55,0 -0.721885,0.45 -0.381966,1 0.339919,0.55 1.068034,1 1.618034,1 0.55,0 0.721885,-0.45 0.381966,-1 z"
       id="path7245"
       inkscape:connector-curvature="0" />
    <path
       style="fill:url(#pattern7325);fill-opacity:1"
       d="m 71.81644,67.68356 c -0.339919,-0.55 -1.068034,-1 -1.618034,-1 -0.55,0 -0.721885,0.45 -0.381966,1 0.339919,0.55 1.068034,1 1.618034,1 0.55,0 0.721885,-0.45 0.381966,-1 z"
       id="path7243"
       inkscape:connector-curvature="0" />
    <path
       style="fill:url(#pattern7323);fill-opacity:1"
       d="m 76.81644,67.68356 c -0.339919,-0.55 -1.068034,-1 -1.618034,-1 -0.55,0 -0.721885,0.45 -0.381966,1 0.339919,0.55 1.068034,1 1.618034,1 0.55,0 0.721885,-0.45 0.381966,-1 z"
       id="path7241"
       inkscape:connector-curvature="0" />
    <path
       style="fill:url(#pattern7321);fill-opacity:1"
       d="m 81.81644,67.68356 c -0.33992,-0.55 -1.06803,-1 -1.618034,-1 -0.55,0 -0.721885,0.45 -0.381966,1 0.339919,0.55 1.06803,1 1.61803,1 0.55,0 0.72189,-0.45 0.38197,-1 z"
       id="path7239"
       inkscape:connector-curvature="0" />
    <path
       style="fill:url(#pattern7319);fill-opacity:1"
       d="m 86.81644,67.68356 c -0.33992,-0.55 -1.06803,-1 -1.61803,-1 -0.55,0 -0.72189,0.45 -0.38197,1 0.33992,0.55 1.06803,1 1.61803,1 0.55,0 0.72189,-0.45 0.38197,-1 z"
       id="path7237"
       inkscape:connector-curvature="0" />
    <path
       style="fill:url(#pattern7317);fill-opacity:1"
       d="m 91.81644,67.68356 c -0.33992,-0.55 -1.06803,-1 -1.61803,-1 -0.55,0 -0.72189,0.45 -0.38197,1 0.33992,0.55 1.06803,1 1.61803,1 0.55,0 0.72189,-0.45 0.38197,-1 z"
       id="path7235"
       inkscape:connector-curvature="0" />
    <path
       style="fill:url(#pattern7315);fill-opacity:1"
       d="m 12.443995,61.93356 c 1.243871,-1.586056 1.208501,-1.621426 -0.377555,-0.377555 -1.665748,1.306369 -2.195479,2.127555 -1.372445,2.127555 0.207656,0 0.995156,-0.7875 1.75,-1.75 z"
       id="path7233"
       inkscape:connector-curvature="0" />
    <path
       style="fill:url(#pattern7313);fill-opacity:1"
       d="m 30.443995,61.93356 c 1.243871,-1.586056 1.208501,-1.621426 -0.377555,-0.377555 -0.9625,0.754844 -1.75,1.542344 -1.75,1.75 0,0.823034 0.821186,0.293303 2.127555,-1.372445 z"
       id="path7231"
       inkscape:connector-curvature="0" />
    <path
       style="fill:url(#pattern7311);fill-opacity:1"
       d="m 48.443995,61.93356 c 1.243871,-1.586056 1.208501,-1.621426 -0.377555,-0.377555 -0.9625,0.754844 -1.75,1.542344 -1.75,1.75 0,0.823034 0.821186,0.293303 2.127555,-1.372445 z"
       id="path7229"
       inkscape:connector-curvature="0" />
    <path
       style="fill:url(#pattern7309);fill-opacity:1"
       d="m 66.443995,61.93356 c 1.243871,-1.586056 1.208501,-1.621426 -0.377555,-0.377555 -0.9625,0.754844 -1.75,1.542344 -1.75,1.75 0,0.823034 0.821186,0.293303 2.127555,-1.372445 z"
       id="path7227"
       inkscape:connector-curvature="0" />
    <path
       style="fill:url(#pattern7307);fill-opacity:1"
       d="m 84.444,61.93356 c 1.24387,-1.586056 1.2085,-1.621426 -0.37756,-0.377555 -0.9625,0.754844 -1.75,1.542344 -1.75,1.75 0,0.823034 0.82119,0.293303 2.12756,-1.372445 z"
       id="path7225"
       inkscape:connector-curvature="0" />
    <path
       style="fill:url(#pattern7305);fill-opacity:1"
       d="m 9.443995,58.93356 c 1.269516,-1.618755 1.222451,-1.639977 -0.627555,-0.282968 -1.1,0.806868 -2.1875,1.594368 -2.416667,1.75 -0.229166,0.155633 0.05323,0.282968 0.627556,0.282968 0.574322,0 1.661822,-0.7875 2.416666,-1.75 z"
       id="path7223"
       inkscape:connector-curvature="0" />
    <path
       style="fill:url(#pattern7303);fill-opacity:1"
       d="m 27.443995,58.93356 c 1.269516,-1.618755 1.222451,-1.639977 -0.627555,-0.282968 -1.1,0.806868 -2.1875,1.594368 -2.416667,1.75 -0.229166,0.155633 0.05323,0.282968 0.627556,0.282968 0.574322,0 1.661822,-0.7875 2.416666,-1.75 z"
       id="path7221"
       inkscape:connector-curvature="0" />
    <path
       style="fill:url(#pattern7301);fill-opacity:1"
       d="m 45.443995,58.93356 c 1.269516,-1.618755 1.222451,-1.639977 -0.627555,-0.282968 -1.1,0.806868 -2.1875,1.594368 -2.416667,1.75 -0.229166,0.155633 0.05323,0.282968 0.627556,0.282968 0.574322,0 1.661822,-0.7875 2.416666,-1.75 z"
       id="path7219"
       inkscape:connector-curvature="0" />
    <path
       style="fill:url(#pattern7299);fill-opacity:1"
       d="m 63.443995,58.93356 c 1.269516,-1.618755 1.222451,-1.639977 -0.627555,-0.282968 -1.1,0.806868 -2.1875,1.594368 -2.416667,1.75 -0.229166,0.155633 0.05323,0.282968 0.627556,0.282968 0.574322,0 1.661822,-0.7875 2.416666,-1.75 z"
       id="path7217"
       inkscape:connector-curvature="0" />
    <path
       style="fill:url(#pattern7297);fill-opacity:1"
       d="m 81.444,58.93356 c 1.26951,-1.618755 1.22245,-1.639977 -0.62756,-0.282968 -1.1,0.806868 -2.1875,1.594368 -2.416667,1.75 -0.229166,0.155633 0.05323,0.282968 0.627556,0.282968 0.574322,0 1.661821,-0.7875 2.416671,-1.75 z"
       id="path7215"
       inkscape:connector-curvature="0" />
    <path
       style="fill:url(#pattern7295);fill-opacity:1"
       d="m 103.31644,41.338548 c 0,-0.189757 -1.0125,-1.202257 -2.25,-2.25 l -2.25,-1.904988 1.90499,2.25 c 1.79022,2.114445 2.59501,2.705241 2.59501,1.904988 z"
       id="path7213"
       inkscape:connector-curvature="0" />
    <path
       style="fill:url(#pattern7293);fill-opacity:1"
       d="m 60.135015,37.934695 c -12.474784,-0.158583 -33.174784,-0.158755 -46,-3.83e-4 -12.825216,0.158373 -2.618575,0.288122 22.681425,0.288333 25.3,2.1e-4 35.793359,-0.129368 23.318575,-0.28795 z"
       id="path7211"
       inkscape:connector-curvature="0" />
    <path
       style="fill:url(#pattern7273);fill-opacity:1"
       d="m -8.47925,22.93356 0.29569,-6.75 8.38594804,-0.292639 c 7.37576696,-0.257387 8.61518496,-0.04658 10.28895496,1.75 1.752449,1.881033 3.086667,2.042639 16.864052,2.042639 l 14.961045,0 0,5 0,5 -25.54569,0 -25.54569,0 0.29569,-6.75 z"
       id="path7209"
       inkscape:connector-curvature="0" />
    <path
       style="fill:url(#pattern7291);fill-opacity:1"
       d="m 52.31644,24.68356 0,-5 16.297052,0 16.297048,0 3.81776,3.909733 c 2.09976,2.150354 3.51453,4.400354 3.14393,5 -0.44902,0.726529 -7.15979,1.090267 -20.114807,1.090267 l -19.440983,0 0,-5 z"
       id="path7207"
       inkscape:connector-curvature="0" />
    <path
       style="fill:url(#pattern7289);fill-opacity:1"
       d="M 14.999892,8.033679 C 13.830516,6.864303 14.25144,-3.85144 15.51644,-5.11644 c 0.674331,-0.674331 3.906123,-1.2 7.377555,-1.2 4.27121,0 6.561719,-0.462888 7.422445,-1.5 0.933104,-1.124321 3.43763,-1.5 10,-1.5 6.56237,0 9.066896,0.375679 10,1.5 0.863774,1.040784 3.159853,1.5 7.5,1.5 7.782205,0 8.701845,0.959872 8.302421,8.665627 L 65.81644,8.18356 40.749892,8.450345 c -13.786601,0.146732 -25.374101,-0.04077 -25.75,-0.416666 z"
       id="path7205"
       inkscape:connector-curvature="0" />
    <path
       style="fill:url(#pattern7287);fill-opacity:1"
       d="m 22.078099,0.99647996 c -0.956087,-0.250293 -2.756087,-0.259374 -4,-0.02018 C 16.834187,1.215492 17.61644,1.420277 19.81644,1.431377 c 2.2,0.0111 3.217747,-0.184605 2.261659,-0.43489704 z"
       id="path7203"
       inkscape:connector-curvature="0" />
    <path
       style="fill:url(#pattern7285);fill-opacity:1"
       d="m 56.31644,-1.05557 c 0,-0.693479 0.9375,-1.26087 2.083333,-1.26087 2.787013,0 1.922381,-2.40304 -1.019585,-2.833694 -1.37212,-0.200855 -3.331369,0.62656 -4.921672,2.078482 -2.349615,2.14516296 -3.508268,2.39984196 -10.467213,2.30075996 -4.303826,-0.06128 -7.976377,0.133296 -8.161226,0.432388 -0.184849,0.299092 4.798962,0.543803 11.075137,0.543803 8.514779,0 11.411226,-0.320039 11.411226,-1.26086896 z"
       id="path7201"
       inkscape:connector-curvature="0" />
    <path
       style="fill:url(#pattern7283);fill-opacity:1"
       d="m 21.49378,-2.09378 c 0.876126,-0.876126 0.741785,-1.316464 -0.553251,-1.813416 -1.880998,-0.721807 -2.908727,-0.07756 -3.215996,2.015996 -0.234377,1.59691596 2.094942,1.47172496 3.769247,-0.20258 z"
       id="path7199"
       inkscape:connector-curvature="0" />
    <path
       style="fill:url(#pattern7281);fill-opacity:1"
       d="m 49.763654,-7.40185 c -0.321976,-0.520968 -1.011657,-0.683779 -1.532624,-0.361804 -0.520968,0.321976 -0.683779,1.011657 -0.361804,1.532624 0.321976,0.520968 1.011657,0.683779 1.532624,0.361804 0.520968,-0.321976 0.683779,-1.011657 0.361804,-1.532624 z"
       id="path7197"
       inkscape:connector-curvature="0" />
    <path
       style="fill:url(#pattern7279);fill-opacity:1"
       d="m 75.31644,1.085373 0,-5.598187 6.25,0.63471 c 3.4375,0.34909 8.08261,1.10439 10.32247,1.678442 5.81951,1.49148296 41.94249,0.773013 43.57959,-0.866778 1.93738,-1.940572 14.75229,-1.646535 17.00278,0.390128 1.59045,1.43934 2.52102,1.489732 7.60127,0.411628 3.18393,-0.675675 7.10059,-1.076232 8.7037,-0.890128 2.60524,0.302441 2.91237,0.710026 2.89234,3.83837196 L 171.64619,4.18356 162.57364,3.879667 c -5.60559,-0.187764 -9.32145,0.09884 -9.72389,0.75 C 151.97119,6.0512 137.02698,5.9941 135.59662,4.563747 133.9522,2.919325 82.1159,3.785176 81.55549,5.466426 81.33234,6.135849 79.837273,6.68356 78.233107,6.68356 c -2.874888,0 -2.916667,-0.08019 -2.916667,-5.598187 z"
       id="path7195"
       inkscape:connector-curvature="0" />
    <path
       style="fill:url(#pattern7277);fill-opacity:1"
       d="M 79.580872,0.08579396 C 80.55402,-0.88735104 79.217881,-3.31644 77.709451,-3.31644 c -0.766156,0 -1.393011,0.6 -1.393011,1.333333 0,2.21482796 1.908778,3.424556 3.264432,2.06890096 z"
       id="path7193"
       inkscape:connector-curvature="0" />
    <path
       style="fill:url(#pattern7275);fill-opacity:1"
       d="m 142.81644,-1.31644 c 0.34463,-0.557626 -0.40341,-0.993226 -1.69098,-0.984687 -1.85764,0.01232 -2.01579,0.204811 -0.80902,0.984687 1.86074,1.20249996 1.75681,1.20249996 2.5,0 z"
       id="path7189"
       inkscape:connector-curvature="0" />
  </g>
  <g
     id="projectile-template">
    <path
       id="path5060"
       sodipodi:nodetypes="ccc"
       inkscape:connector-curvature="0"
       d="m 4.956277,-3.9563222 0,7.9126 c -13.2167398,0 -13.2167398,-7.9126 0,-7.9126 z"
       style="fill-opacity:1;fill-rule:evenodd;stroke-width:2.08744431px;stroke-linecap:butt;stroke-linejoin:miter;stroke-opacity:1;enable-background:new" />
  </g>
</svg>
