<?xml version="1.0" encoding="UTF-8" standalone="no"?>
<!-- Created with Inkscape (http://www.inkscape.org/) -->

<svg
   xmlns:dc="http://purl.org/dc/elements/1.1/"
   xmlns:cc="http://creativecommons.org/ns#"
   xmlns:rdf="http://www.w3.org/1999/02/22-rdf-syntax-ns#"
   xmlns:svg="http://www.w3.org/2000/svg"
   xmlns="http://www.w3.org/2000/svg"
   xmlns:xlink="http://www.w3.org/1999/xlink"
   xmlns:sodipodi="http://sodipodi.sourceforge.net/DTD/sodipodi-0.dtd"
   xmlns:inkscape="http://www.inkscape.org/namespaces/inkscape"
   width="128"
   height="64"
   viewBox="0 0 128 64"
   id="svg2"
   version="1.1"
   inkscape:version="0.91 r13725"
   sodipodi:docname="tank2.svg">
  <sodipodi:namedview
     pagecolor="#ffffff"
     bordercolor="#666666"
     borderopacity="1"
     objecttolerance="10"
     gridtolerance="10"
     guidetolerance="10"
     inkscape:pageopacity="0"
     inkscape:pageshadow="2"
     inkscape:window-width="1920"
     inkscape:window-height="976"
     id="namedview3386"
     showgrid="false"
     inkscape:zoom="3.1601563"
     inkscape:cx="-49.33629"
     inkscape:cy="95.204191"
     inkscape:window-x="-8"
     inkscape:window-y="-8"
     inkscape:window-maximized="1"
     inkscape:current-layer="projectile-template" />
  <metadata
     id="metadata4269">
    <rdf:RDF>
      <cc:Work
         rdf:about="">
        <dc:format>image/svg+xml</dc:format>
        <dc:type
           rdf:resource="http://purl.org/dc/dcmitype/StillImage" />
        <dc:title />
      </cc:Work>
    </rdf:RDF>
  </metadata>
  <defs
     id="defs4267">
    <linearGradient
       inkscape:collect="always"
       id="linearGradient4547">
      <stop
         style="stop-color:#ffffaf;stop-opacity:1"
         offset="0"
         id="stop4549" />
      <stop
         style="stop-color:#ff8383;stop-opacity:0.10196079"
         offset="0.76212758"
         id="stop4552" />
      <stop
         style="stop-color:#fcffb0;stop-opacity:0"
         offset="1"
         id="stop4551" />
    </linearGradient>
    <ref
       id="paramCannonAngle"
       param="cannonAngle"
       default="40" />
    <inkscape:perspective
       sodipodi:type="inkscape:persp3d"
       inkscape:vp_x="0 : 16 : 1"
       inkscape:vp_y="0 : 1000 : 0"
       inkscape:vp_z="64 : 16 : 1"
       inkscape:persp3d-origin="32 : 10.666667 : 1"
       id="perspective4216" />
    <radialGradient
       inkscape:collect="always"
       xlink:href="#linearGradient4547"
       id="radialGradient4553"
       cx="-126.73424"
       cy="-2.1359694"
       fx="-126.73424"
       fy="-2.1359694"
       r="65.344872"
       gradientTransform="matrix(1.779661,0,0,1.7070218,231.86289,4.822909)"
       gradientUnits="userSpaceOnUse" />
  </defs>
  <clipPath
     clipPathUnits="userSpaceOnUse"
     id="clipPath3506">
    <path
       sodipodi:nodetypes="scssssssscssscss"
       inkscape:connector-curvature="0"
       id="path3508"
       d="m -2.6446586,0.522724 0,-5.598187 6.25,0.634709 c 3.4375,0.349086 8.0110726,1.741281 10.3224716,1.678442 5.414729,-0.147209 41.942489,0.773013 43.579589,-0.866778 1.93738,-1.940572 14.75229,-1.646535 17.00278,0.390128 1.59045,1.43934 2.52102,1.489732 7.60127,0.411628 3.18393,-0.675675 7.10059,-1.076233 8.7037,-0.890128 2.60524,0.302442 2.91237,0.710026 2.89234,3.838372 l -0.0224,3.5 -9.07255,-0.303893 c -5.60559,-0.187764 -9.32145,0.09884 -9.72389,0.75 C 74.010092,5.48855 59.065882,5.43145 57.635522,4.001097 55.991102,2.356675 4.1548014,3.222526 3.5943914,4.903776 c -0.22315,0.669423 -1.718217,1.217133 -3.322383,1.217134 -2.874887,0 -2.916666,-0.08019 -2.916667,-5.598186 z"
       style="fill:#000000" />
  </clipPath>
  <clipPath
     clipPathUnits="userSpaceOnUse"
     id="clipPath3510">
    <path
       inkscape:connector-curvature="0"
       id="path3512"
       d="m -22.961208,7.47103 c -1.16937,-1.169376 -0.74845,-11.885119 0.51655,-13.150118 0.67433,-0.674332 3.90613,-1.200001 7.37756,-1.200001 4.27121,0 6.56172,-0.462889 7.42244,-1.5 0.93311,-1.124321 3.43763,-1.5 10,-1.5 6.56237,0 9.066897,0.375679 10,1.5 0.863774,1.040784 3.159853,1.5 7.5,1.5 7.782205,0 8.701845,0.959872 8.302422,8.665627 L 27.855343,7.620911 2.788792,7.887696 c -13.7866,0.146732 -25.3741,-0.04077 -25.75,-0.416666 z"
       style="fill:#000000" />
  </clipPath>
  <clipPath
     clipPathUnits="userSpaceOnUse"
     id="clipPath3361">
    <path
       inkscape:connector-curvature="0"
       id="path3363"
       d="m -46.440338,12.370911 0.29568,-6.75 8.38595,-0.292639 c 7.37577,-0.257387 8.61518,-0.04658 10.28896,1.75 1.75244,1.881033 3.08666,2.042639 16.86404,2.042639 l 14.96105,0 0,5 0,5 -25.54569,0 -25.54569,0 0.2957,-6.75 z"
       style="fill:#000000" />
  </clipPath>
  <clipPath
     clipPathUnits="userSpaceOnUse"
     id="clipPath3387">
    <path
       clip-path="none"
       style="fill:#000000"
       d="m 4.355342,14.120911 0,-5 16.297052,0 16.297047,0 3.817761,3.909733 c 2.09976,2.150354 3.51453,4.400354 3.14393,5 -0.44902,0.726529 -7.159791,1.090267 -20.114808,1.090267 l -19.440981,0 -1e-6,-5 z"
       id="path3389"
       inkscape:connector-curvature="0" />
  </clipPath>
  <clipPath
     clipPathUnits="userSpaceOnUse"
     id="clipPath3397">
    <path
       inkscape:connector-curvature="0"
       id="path3399"
       d="m -50.423538,42.844007 -6.22112,-6.276907 0,-7.536004 c 0,-6.951363 0.21759,-7.744466 2.80472,-10.223094 l 2.80472,-2.687091 57.520965,0 57.520965,0 2.17432,2.314451 c 1.85668,1.97635 2.174311,3.477917 2.17431,10.278889 l 0,7.964437 -6.27691,6.221111 -6.2769,6.221112 -50.001983,0 -50.001987,-10e-7 -6.2211,-6.276903 z"
       style="fill:#000000" />
  </clipPath>
  <g
     class="tank"
     id="tank-template"
     transfor1m="translate(0,0)">
    <image
       sodipodi:absref="D:\Dev\Server\WWW\kidoop\Character\Tank\..\..\Character\Tank\img\tank2.png"
       xlink:href="..\..\Character\Tank\img\tank2.png"
       y="-32.879089"
       x="-57.644653"
       id="image3540"
       preserveAspectRatio="none"
       height="128"
       width="256"
       clip-path="url(#clipPath3397)" />
    <g
       class="cannon-body"
       id="cannon-body"
       inkscape:label="">
      <g
         inkscape:label=""
         cy="url(#paramCannonAngle)"
         class="cannon-rotate"
         id="cannon-rotate">
        <image
           sodipodi:absref="D:\Dev\Server\WWW\kidoop\Character\Tank\..\..\Character\Tank\img\tank2.png"
           xlink:href="..\..\Character\Tank\img\tank2.png"
           width="256"
           height="128"
           preserveAspectRatio="none"
           id="image4473"
           x="-97.644669"
           y="-12.879089"
           clip-path="url(#clipPath3506)" />
        <rect
           y="-4.2041359"
           x="92.131699"
           height="9.0753574"
           width="1.9679996"
           id="cannon-tip"
           class="cannon-tip"
           style="fill:#75791b;fill-opacity:1;stroke:#7a7a39;stroke-width:0;stroke-linecap:round;stroke-linejoin:round;stroke-miterlimit:4;stroke-dasharray:none;stroke-dashoffset:0;stroke-opacity:1" />
      </g>
      <image
         sodipodi:absref="D:\Dev\Server\WWW\kidoop\Character\Tank\..\..\Character\Tank\img\tank2.png"
         xlink:href="..\..\Character\Tank\img\tank2.png"
         clip-path="url(#clipPath3510)"
         width="256"
         height="128"
         preserveAspectRatio="none"
         id="image4453"
         x="-57.644653"
         y="-12.879089" />
    </g>
    <image
       sodipodi:absref="D:\Dev\Server\WWW\kidoop\Character\Tank\..\..\Character\Tank\img\tank2.png"
       xlink:href="..\..\Character\Tank\img\tank2.png"
       y="-22.879089"
       x="-67.644653"
       id="image3514"
       preserveAspectRatio="none"
       height="128"
       width="256"
       clip-path="url(#clipPath3387)" />
    <image
       sodipodi:absref="D:\Dev\Server\WWW\kidoop\Character\Tank\..\..\Character\Tank\img\tank2.png"
       xlink:href="..\..\Character\Tank\img\tank2.png"
       y="-22.879089"
       x="-57.644653"
       id="image3359"
       preserveAspectRatio="none"
       height="128"
       width="256"
       clip-path="url(#clipPath3361)" />
  </g>
  <g
     id="projectile-template">
    <ellipse
       style="fill:url(#radialGradient4553);fill-opacity:1;fill-rule:evenodd;stroke:none;stroke-width:1px;stroke-linecap:butt;stroke-linejoin:miter;stroke-opacity:1"
       id="path3737"
       cx="6.3189163"
       cy="1.1767616"
       rx="116.29172"
       ry="111.54512" />
    <path
       id="path5060"
       sodipodi:nodetypes="ccc"
       inkscape:connector-curvature="0"
       d="m 4.956277,-3.9563222 0,7.9126 c -13.2167398,0 -13.2167398,-7.9126 0,-7.9126 z"
       style="fill-opacity:1;fill-rule:evenodd;stroke-width:2.08744431px;stroke-linecap:butt;stroke-linejoin:miter;stroke-opacity:1;enable-background:new" />
  </g>
</svg>
