<?xml version="1.0" encoding="UTF-8" standalone="no"?>
<!-- Created with Inkscape (http://www.inkscape.org/) -->

<svg
   xmlns:osb="http://www.openswatchbook.org/uri/2009/osb"
   xmlns:dc="http://purl.org/dc/elements/1.1/"
   xmlns:cc="http://creativecommons.org/ns#"
   xmlns:rdf="http://www.w3.org/1999/02/22-rdf-syntax-ns#"
   xmlns:svg="http://www.w3.org/2000/svg"
   xmlns="http://www.w3.org/2000/svg"
   xmlns:xlink="http://www.w3.org/1999/xlink"
   xmlns:sodipodi="http://sodipodi.sourceforge.net/DTD/sodipodi-0.dtd"
   xmlns:inkscape="http://www.inkscape.org/namespaces/inkscape"
   width="400"
   height="400"
   id="svg3347"
   version="1.1"
   inkscape:version="0.91 r13725"
   viewBox="0 0 400 400"
   sodipodi:docname="gravXY.svg">
  <script
     id="script9666">
    function onClick(e) {
        var x = e.pageX || e.clientX + document.body.scrollLeft + document.documentElement.scrollLeft;
        var y = e.pageY || e.clientY + document.body.scrollTop + document.documentElement.scrollTop;

        var g = document.getElementById('controls');
        g.setAttribute('transform', 'translate(' + (x-80) + ', ' + (y-120) + ')');
    }
    document.addEventListener('click', onClick);
  </script>
  <defs
     id="defs3349">
    <linearGradient
       inkscape:collect="always"
       id="linearGradient8202">
      <stop
         style="stop-color:#7a7a39;stop-opacity:1;"
         offset="0"
         id="stop8204" />
      <stop
         style="stop-color:#7a7a39;stop-opacity:0;"
         offset="1"
         id="stop8206" />
    </linearGradient>
    <linearGradient
       id="linearGradient4331"
       osb:paint="solid">
      <stop
         style="stop-color:#800000;stop-opacity:1;"
         offset="0"
         id="stop4333" />
    </linearGradient>
    <marker
       inkscape:stockid="Arrow1Lend"
       orient="auto"
       refY="0"
       refX="0"
       id="marker7634"
       style="overflow:visible"
       inkscape:isstock="true">
      <path
         id="path7636"
         d="M 0,0 5,-5 -12.5,0 5,5 0,0 Z"
         style="fill-rule:evenodd;stroke:#000000;stroke-width:1pt"
         transform="matrix(-0.8,0,0,-0.8,-10,0)"
         inkscape:connector-curvature="0" />
    </marker>
    <marker
       inkscape:stockid="Arrow1Lend"
       orient="auto"
       refY="0"
       refX="0"
       id="Arrow1Lend"
       style="overflow:visible"
       inkscape:isstock="true">
      <path
         id="path7359"
         d="M 0,0 5,-5 -12.5,0 5,5 0,0 Z"
         style="fill-rule:evenodd;stroke:#000000;stroke-width:1pt"
         transform="matrix(-0.8,0,0,-0.8,-10,0)"
         inkscape:connector-curvature="0" />
    </marker>
    <marker
       inkscape:stockid="Arrow1Lstart"
       orient="auto"
       refY="0"
       refX="0"
       id="Arrow1Lstart"
       style="overflow:visible"
       inkscape:isstock="true">
      <path
         id="path7356"
         d="M 0,0 5,-5 -12.5,0 5,5 0,0 Z"
         style="fill-rule:evenodd;stroke:#000000;stroke-width:1pt"
         transform="matrix(0.8,0,0,0.8,10,0)"
         inkscape:connector-curvature="0" />
    </marker>
    <linearGradient
       inkscape:collect="always"
       id="linearGradient7312">
      <stop
         style="stop-color:#800000;stop-opacity:1;"
         offset="0"
         id="stop7314" />
      <stop
         style="stop-color:#800000;stop-opacity:0;"
         offset="1"
         id="stop7316" />
    </linearGradient>
    <linearGradient
       inkscape:collect="always"
       id="linearGradient7298">
      <stop
         style="stop-color:#800000;stop-opacity:1;"
         offset="0"
         id="stop7300" />
      <stop
         style="stop-color:#800000;stop-opacity:0;"
         offset="1"
         id="stop7302" />
    </linearGradient>
    <inkscape:perspective
       sodipodi:type="inkscape:persp3d"
       inkscape:vp_x="100 : 100 : 1"
       inkscape:vp_y="0 : 1000 : 0"
       inkscape:vp_z="-60 : 120 : 1"
       inkscape:persp3d-origin="150 : 100 : 1"
       id="perspective3355" />
    <radialGradient
       inkscape:collect="always"
       xlink:href="#linearGradient7298"
       id="radialGradient7308"
       cx="100"
       cy="380"
       fx="100"
       fy="380"
       r="20.000114"
       gradientUnits="userSpaceOnUse"
       gradientTransform="matrix(5.8867928,0,0,5.8867928,-388.67926,-2236.9812)" />
    <linearGradient
       inkscape:collect="always"
       xlink:href="#linearGradient7312"
       id="linearGradient7320"
       x1="79.999886"
       y1="380"
       x2="120.00011"
       y2="380"
       gradientUnits="userSpaceOnUse"
       gradientTransform="matrix(5.8867928,0,0,5.8867928,-388.67926,-2236.9812)" />
    <radialGradient
       inkscape:collect="always"
       xlink:href="#linearGradient8202"
       id="radialGradient8210"
       cx="-317"
       cy="154.83476"
       fx="-317"
       fy="154.83476"
       r="5.4299927"
       gradientTransform="matrix(2,0,0,1.6225068,670.0645,-129.00071)"
       gradientUnits="userSpaceOnUse" />
  </defs>
  <sodipodi:namedview
     id="base"
     pagecolor="#ffffff"
     bordercolor="#666666"
     borderopacity="1.0"
     inkscape:pageopacity="0.0"
     inkscape:pageshadow="2"
     inkscape:zoom="1.9725481"
     inkscape:cx="88.826327"
     inkscape:cy="214.70669"
     inkscape:current-layer="controls"
     inkscape:document-units="px"
     showgrid="true"
     inkscape:window-width="1920"
     inkscape:window-height="1058"
     inkscape:window-x="1507"
     inkscape:window-y="-8"
     inkscape:window-maximized="1"
     showguides="false"
     inkscape:snap-page="false">
    <inkscape:grid
       type="xygrid"
       id="grid3529" />
  </sodipodi:namedview>
  <metadata
     id="metadata3352">
    <rdf:RDF>
      <cc:Work
         rdf:about="">
        <dc:format>image/svg+xml</dc:format>
        <dc:type
           rdf:resource="http://purl.org/dc/dcmitype/StillImage" />
        <dc:title></dc:title>
      </cc:Work>
    </rdf:RDF>
  </metadata>
  <g
     id="background"
     inkscape:label="background"
     inkscape:groupmode="layer"
     transform1="matrix(1,0,-0.249328,1,0,0)"
     transform="translate(0,200)">
    <path
       style="opacity:0.52899996;fill:none;fill-rule:evenodd;stroke:#808080;stroke-width:1.15469754px;stroke-linecap:butt;stroke-linejoin:miter;stroke-opacity:1"
       d="m 40.577348,-200.00001 c 0,400 0,400 0,400"
       id="path3533"
       inkscape:connector-curvature="0" />
    <path
       style="opacity:0.52899996;fill:none;fill-rule:evenodd;stroke:#808080;stroke-width:1.15469754px;stroke-linecap:butt;stroke-linejoin:miter;stroke-opacity:1"
       d="m 80.577148,-200.00001 c 0,400 0,400 0,400"
       id="path3533-6"
       inkscape:connector-curvature="0" />
    <path
       style="opacity:0.52899996;fill:none;fill-rule:evenodd;stroke:#808080;stroke-width:1.15469754px;stroke-linecap:butt;stroke-linejoin:miter;stroke-opacity:1"
       d="m 120.57694,-200.00001 c 0,400 0,400 0,400"
       id="path3533-5"
       inkscape:connector-curvature="0" />
    <path
       style="opacity:0.52899996;fill:none;fill-rule:evenodd;stroke:#808080;stroke-width:1.15469754px;stroke-linecap:butt;stroke-linejoin:miter;stroke-opacity:1"
       d="m 160.5767,-200.00001 c 0,400 0,400 0,400"
       id="path3533-6-1"
       inkscape:connector-curvature="0" />
    <path
       style="opacity:0.52899996;fill:none;fill-rule:evenodd;stroke:#808080;stroke-width:1.15469754px;stroke-linecap:butt;stroke-linejoin:miter;stroke-opacity:1"
       d="m 200.5765,-200.00001 c 0,400 0,400 0,400"
       id="path3533-8"
       inkscape:connector-curvature="0" />
    <path
       style="opacity:0.52899996;fill:none;fill-rule:evenodd;stroke:#808080;stroke-width:1.15469754px;stroke-linecap:butt;stroke-linejoin:miter;stroke-opacity:1"
       d="m 240.57628,-200.00001 c 0,400 0,400 0,400"
       id="path3533-6-5"
       inkscape:connector-curvature="0" />
    <path
       style="opacity:0.52899996;fill:none;fill-rule:evenodd;stroke:#808080;stroke-width:1.15469754px;stroke-linecap:butt;stroke-linejoin:miter;stroke-opacity:1"
       d="m 280.57606,-200.00001 c 0,400 0,400 0,400"
       id="path3533-5-6"
       inkscape:connector-curvature="0" />
    <path
       style="opacity:0.52899996;fill:none;fill-rule:evenodd;stroke:#808080;stroke-width:1.15469754px;stroke-linecap:butt;stroke-linejoin:miter;stroke-opacity:1"
       d="m 320.57586,-200.00001 c 0,400 0,400 0,400"
       id="path3533-6-5-1"
       inkscape:connector-curvature="0" />
    <path
       style="opacity:0.52899996;fill:none;fill-rule:evenodd;stroke:#808080;stroke-width:1.15469754px;stroke-linecap:butt;stroke-linejoin:miter;stroke-opacity:1"
       d="m 360.57564,-200.00001 c 0,400 0,400 0,400"
       id="path3533-5-6-9"
       inkscape:connector-curvature="0" />
    <path
       style="opacity:0.52899996;fill:none;fill-rule:evenodd;stroke:#808080;stroke-width:1.15469754px;stroke-linecap:butt;stroke-linejoin:miter;stroke-opacity:1"
       d="m 0,159.42265 c 400,0 400,0 400,0"
       id="path3533-0"
       inkscape:connector-curvature="0" />
    <path
       style="opacity:0.52899996;fill:none;fill-rule:evenodd;stroke:#808080;stroke-width:1.15469754px;stroke-linecap:butt;stroke-linejoin:miter;stroke-opacity:1"
       d="m 0,119.42285 c 400,0 400,0 400,0"
       id="path3533-6-3"
       inkscape:connector-curvature="0" />
    <path
       style="opacity:0.52899996;fill:none;fill-rule:evenodd;stroke:#808080;stroke-width:1.15469754px;stroke-linecap:butt;stroke-linejoin:miter;stroke-opacity:1"
       d="m 0,79.423068 c 400,0 400,0 400,0"
       id="path3533-5-66"
       inkscape:connector-curvature="0" />
    <path
       style="opacity:0.52899996;fill:none;fill-rule:evenodd;stroke:#808080;stroke-width:1.15469754px;stroke-linecap:butt;stroke-linejoin:miter;stroke-opacity:1"
       d="m 0,39.423308 c 400,0 400,0 400,0"
       id="path3533-6-1-8"
       inkscape:connector-curvature="0" />
    <path
       style="opacity:0.52899996;fill:none;fill-rule:evenodd;stroke:#808080;stroke-width:1.15469754px;stroke-linecap:butt;stroke-linejoin:miter;stroke-opacity:1"
       d="m 0,-0.57649522 c 400,0 400,0 400,0"
       id="path3533-8-4"
       inkscape:connector-curvature="0" />
    <path
       style="opacity:0.52899996;fill:none;fill-rule:evenodd;stroke:#808080;stroke-width:1.15469754px;stroke-linecap:butt;stroke-linejoin:miter;stroke-opacity:1"
       d="m 0,-40.576275 c 400,0 400,0 400,0"
       id="path3533-6-5-6"
       inkscape:connector-curvature="0" />
    <path
       style="opacity:0.52899996;fill:none;fill-rule:evenodd;stroke:#808080;stroke-width:1.15469754px;stroke-linecap:butt;stroke-linejoin:miter;stroke-opacity:1"
       d="m 0,-80.576055 c 400,0 400,0 400,0"
       id="path3533-5-6-94"
       inkscape:connector-curvature="0" />
    <path
       style="opacity:0.52899996;fill:none;fill-rule:evenodd;stroke:#808080;stroke-width:1.15469754px;stroke-linecap:butt;stroke-linejoin:miter;stroke-opacity:1"
       d="m 0,-120.57586 c 400,0 400,0 400,0"
       id="path3533-6-5-1-0"
       inkscape:connector-curvature="0" />
    <path
       style="opacity:0.52899996;fill:none;fill-rule:evenodd;stroke:#808080;stroke-width:1.15469754px;stroke-linecap:butt;stroke-linejoin:miter;stroke-opacity:1"
       d="m 0,-160.57564 c 400,0 400,0 400,0"
       id="path3533-5-6-9-4"
       inkscape:connector-curvature="0" />
    <path
       sodipodi:type="spiral"
       style="opacity:0.125;fill:none;fill-rule:evenodd;stroke:#000000;stroke-width:2px;stroke-linecap:butt;stroke-linejoin:miter;stroke-opacity:1"
       id="path4466"
       sodipodi:cx="200"
       sodipodi:cy="-1.2218952e-005"
       sodipodi:expansion="1"
       sodipodi:revolution="3"
       sodipodi:radius="210.23796"
       sodipodi:argument="-16.150337"
       sodipodi:t0="0"
       d="M 200,-1.2218952e-5 C 190.4737,4.512442 189.21736,-10.614987 192.5,-15.833348 c 8.89576,-14.141434 29.45105,-9.584311 39.16667,0.833344 17.37897,18.6347425 9.65393,48.148524 -9.16668,62.499998 C 194.87998,68.561359 155.36598,57.320671 136.66666,29.999971 111.7434,-6.4142261 126.63215,-56.226248 162.50002,-79.166689 207.63608,-108.03489 267.87043,-89.44055 295.00001,-44.999986 327.85758,8.8234908 305.52821,79.544097 252.49997,110.83334 190.00802,147.70662 108.76379,121.62532 73.333317,59.999953 32.427437,-11.148971 62.271249,-102.94063 132.50004,-142.50003 c 79.79841,-44.94991 182.1536,-11.33655 225.83331,67.500061 49.00204,88.44276 11.61422,201.372909 -75.8334,249.166649 C 185.41653,227.22679 61.903021,186.06093 9.9999752,89.999936" />
    <circle
       style="opacity:1;fill:url(#radialGradient7308);fill-opacity:1;stroke:url(#linearGradient7320);stroke-width:58.86792755;stroke-linecap:butt;stroke-linejoin:round;stroke-miterlimit:4;stroke-dasharray:none;stroke-dashoffset:0;stroke-opacity:0.75324079"
       id="path7286"
       cx="200"
       cy="-1.2218952e-005"
       r="90.56604" />
    <rect
       style="opacity:1;fill:#800000;fill-opacity:1;stroke:#800000;stroke-width:17.41527176;stroke-linecap:butt;stroke-linejoin:round;stroke-miterlimit:4;stroke-dasharray:none;stroke-dashoffset:0;stroke-opacity:0.75324079"
       id="rect7322"
       width="362.58472"
       height="22.584728"
       x="18.707642"
       y="-11.292371" />
    <rect
       style="opacity:1;fill:#800000;fill-opacity:1;stroke:#800000;stroke-width:17.41527176;stroke-linecap:butt;stroke-linejoin:round;stroke-miterlimit:4;stroke-dasharray:none;stroke-dashoffset:0;stroke-opacity:0.75324079"
       id="rect7322-8"
       width="362.58472"
       height="22.584728"
       x="-181.29234"
       y="188.70764"
       transform="matrix(0,-1,1,0,0,0)" />
  </g>
  <filter
     id="i1"
     width="1.5"
     height="1.5">
    <feOffset
       result="offOut"
       in="SourceGraphic"
       dx="2"
       dy="2"
       id="feOffset9608" />
    <feColorMatrix
       result="matrixOut"
       in="offOut"
       type="matrix"
       values="0.2 0 0 0 0 0 0.2 0 0 0 0 0 0.2 0 0 0 0 0 1 0"
       id="feColorMatrix9610" />
    <feGaussianBlur
       result="blurOut"
       in="matrixOut"
       stdDeviation="0.5"
       id="feGaussianBlur9612" />
    <feBlend
       in="SourceGraphic"
       in2="blurOut"
       mode="normal"
       id="feBlend9614" />
  </filter>
  <g
     id="controls"
     inkscape:label="controls"
     inkscape:groupmode="layer"
     transform1="matrix(1,0,-0.249328,1,0,0)"
     style="filter:url(#i1)"
     transform="translate(-200,0)">
    <flowRoot
       xml:space="preserve"
       id="flowRoot9051"
       style="font-style:normal;font-weight:normal;font-size:40px;line-height:125%;font-family:sans-serif;letter-spacing:0px;word-spacing:0px;fill:#000000;fill-opacity:1;stroke:none;stroke-width:1px;stroke-linecap:butt;stroke-linejoin:miter;stroke-opacity:1"><flowRegion
         id="flowRegion9053"><rect
           id="rect9055"
           width="100"
           height="80"
           x="-20"
           y="25" /></flowRegion><flowPara
         id="flowPara9057" /></flowRoot>    <circle
       style="opacity:0.499;fill:#d3ffff;fill-opacity:1;fill-rule:evenodd;stroke:#ffffff;stroke-width:0.60000002;stroke-linecap:butt;stroke-linejoin:miter;stroke-miterlimit:4;stroke-dasharray:none;stroke-dashoffset:0;stroke-opacity:1"
       id="path9067"
       cx="65.300003"
       cy="134.7"
       r="65" />
    <path
       id="cannon-tip"
       style="fill:#4e4f50;fill-opacity:1;stroke:url(#radialGradient8210);stroke-width:0;stroke-linecap:round;stroke-linejoin:round;stroke-miterlimit:4;stroke-dasharray:none;stroke-dashoffset:0;stroke-opacity:1"
       d="m 44.149164,108.30563 0.30754,0 0,1.43246 -0.30754,0 z m -1.08932,9.63954 0.64252,0.0472 c 0.35782,1.42754 0.0598,2.73376 -0.92388,3.70068 -1.10848,1.08962 -2.44042,2.13888 -2.8262,2.1551 l -13.10628,0.006 c -0.38578,-0.018 -1.71772,-1.06546 -2.82618,-2.15508 -0.98368,-0.96692 -1.2817,-2.27652 -0.92388,-3.70408 l 0.6425,-0.0438 c -0.1934,1.33568 -0.3602,2.23716 0.84408,3.15184 0.98568,0.74862 2.02756,1.6398 2.18998,1.69376 l 13.25328,-0.002 c 0.1624,-0.054 1.2022,-0.94852 2.18788,-1.69714 1.2043,-0.91466 1.03952,-1.81616 0.84618,-3.15182 z m 1.52338,-9.63352 0,1.4641 -8.94966,0.48804 0,-1.97434 8.94966,0.0222 z m -3.27204,10.95524 c 0,0.6945 0.35048,1.258 0.78356,1.25974 0.43306,0.002 0.7853,-0.55894 0.78748,-1.25344 0.0017,-0.69448 -0.34656,-1.26082 -0.7796,-1.26604 -0.43304,-0.006 -0.78704,0.5526 -0.7914,1.24706 m -17.35262,0.012 c 0,0.6945 0.35048,1.258 0.78354,1.25974 0.43308,0.002 0.78532,-0.55894 0.78748,-1.25344 0.0017,-0.69448 -0.34654,-1.26082 -0.7796,-1.26604 -0.43304,-0.006 -0.78704,0.5526 -0.79138,1.24706 m 1.91056,1.03972 c 0,1.21838 0.61486,2.20692 1.3746,2.21 0.7597,0.004 1.37766,-0.98052 1.38148,-2.19892 0.004,-1.21836 -0.60796,-2.21186 -1.36766,-2.22104 -0.7597,-0.008 -1.38072,0.96942 -1.38836,2.18776 m 3.09558,-0.0934 c 0,1.2184 0.61488,2.20694 1.3746,2.21 0.75972,0.004 1.37766,-0.98054 1.38148,-2.19892 0.004,-1.21836 -0.60794,-2.21186 -1.36766,-2.22104 -0.75968,-0.01 -1.38072,0.96942 -1.38834,2.18776 m 3.11976,0.0222 c 0,1.2184 0.61488,2.20694 1.3746,2.21 0.75972,0.004 1.37766,-0.98054 1.38148,-2.19892 0.004,-1.21836 -0.60794,-2.21186 -1.36764,-2.22104 -0.75972,-0.01 -1.38072,0.96942 -1.38836,2.18776 m 3.0472,0.0222 c 0,1.2184 0.61488,2.20694 1.3746,2.21 0.75972,0.004 1.37768,-0.98054 1.3815,-2.19892 0.004,-1.21836 -0.60796,-2.21186 -1.36768,-2.22104 -0.75968,-0.01 -1.38072,0.96942 -1.38834,2.18776 m 3.10158,0.0222 c 0,1.2184 0.61488,2.20694 1.3746,2.21 0.75972,0.004 1.37766,-0.98054 1.38148,-2.19892 0.004,-1.21836 -0.60794,-2.21186 -1.36764,-2.22104 -0.7597,-0.01 -1.38072,0.96942 -1.38836,2.18776 m 6.08654,-2.85716 -21.39208,0.0614 0.004,-6.3792 6.13528,2.1599 8.9264,0 6.32678,2.7124 c 0.37272,0.24174 0.49624,1.4455 0,1.4455 z m -15.1436,-4.88624 4.7451,0 1.45642,-1.25574 0,-3.5412 -9.33358,-1.38134 0,4.62116 3.13206,0.9795 0,0.57762 z"
       inkscape:connector-curvature="0" />
    <text
       xml:space="preserve"
       style="font-style:normal;font-weight:normal;font-size:80px;line-height:125%;font-family:sans-serif;letter-spacing:0px;word-spacing:0px;fill:#000000;fill-opacity:1;stroke:none;stroke-width:1;stroke-linecap:butt;stroke-linejoin:miter;stroke-miterlimit:4;stroke-dasharray:none;stroke-opacity:1"
       x="70.550003"
       y="117.95"
       id="text8222"
       sodipodi:linespacing="125%"><tspan
         sodipodi:role="line"
         x="70.550003"
         y="117.95"
         style="font-style:normal;font-variant:normal;font-weight:bold;font-stretch:normal;font-size:10px;font-family:sans-serif;-inkscape-font-specification:sans-serif;stroke-width:1;stroke-miterlimit:4;stroke-dasharray:none"
         id="tspan8226">Wind (ax)</tspan><tspan
         sodipodi:role="line"
         x="70.550003"
         y="130.45"
         style="font-style:normal;font-variant:normal;font-weight:bold;font-stretch:normal;font-size:10px;font-family:sans-serif;-inkscape-font-specification:sans-serif;stroke-width:1;stroke-miterlimit:4;stroke-dasharray:none"
         id="tspan8261">2px/s</tspan><tspan
         sodipodi:role="line"
         x="70.550003"
         y="142.95"
         style="font-style:normal;font-variant:normal;font-weight:bold;font-stretch:normal;font-size:10px;font-family:sans-serif;-inkscape-font-specification:sans-serif;stroke-width:1;stroke-miterlimit:4;stroke-dasharray:none"
         id="tspan8263" /></text>
    <text
       xml:space="preserve"
       style="font-style:normal;font-weight:normal;font-size:80px;line-height:125%;font-family:sans-serif;letter-spacing:0px;word-spacing:0px;fill:#000000;fill-opacity:1;stroke:none;stroke-width:1px;stroke-linecap:butt;stroke-linejoin:miter;stroke-opacity:1"
       x="31.300003"
       y="168.95"
       id="text8222-1"
       sodipodi:linespacing="125%"><tspan
         sodipodi:role="line"
         x="31.300003"
         y="168.95"
         style="font-style:normal;font-variant:normal;font-weight:bold;font-stretch:normal;font-size:10px;font-family:sans-serif;-inkscape-font-specification:sans-serif"
         id="tspan8251">Gravity (ay)</tspan><tspan
         sodipodi:role="line"
         x="31.300003"
         y="181.45"
         style="font-style:normal;font-variant:normal;font-weight:bold;font-stretch:normal;font-size:10px;font-family:sans-serif;-inkscape-font-specification:sans-serif"
         id="tspan8255">-1px/s</tspan><tspan
         sodipodi:role="line"
         x="31.300003"
         y="193.95"
         style="font-style:normal;font-variant:normal;font-weight:bold;font-stretch:normal;font-size:10px;font-family:sans-serif;-inkscape-font-specification:sans-serif"
         id="tspan8257" /></text>
    <path
       sodipodi:type="star"
       style="opacity:1;fill:none;fill-opacity:1;stroke:#b23fb9;stroke-width:0.57178187;stroke-linecap:butt;stroke-linejoin:bevel;stroke-miterlimit:4;stroke-dasharray:none;stroke-dashoffset:0;stroke-opacity:0.75324079"
       id="path5280"
       sodipodi:sides="3"
       sodipodi:cx="-57.939648"
       sodipodi:cy="226.06424"
       sodipodi:r1="18.027756"
       sodipodi:r2="0.18027756"
       sodipodi:arg1="0.5880026"
       sodipodi:arg2="1.6352002"
       inkscape:flatsided="false"
       inkscape:rounded="0.05"
       inkscape:randomized="0"
       d="m -42.939648,236.06424 c -0.497519,0.74628 -14.116547,-9.76237 -15.011602,-9.8201 -0.895056,-0.0577 -15.751115,8.61448 -16.148651,7.81048 -0.397537,-0.804 15.512735,-7.3441 16.010253,-8.09038 0.497519,-0.74628 0.415199,-17.94811 1.310254,-17.89038 0.895056,0.0577 -1.396188,17.10647 -0.998651,17.91048 0.397536,0.804 15.335916,9.33362 14.838397,10.0799 z"
       inkscape:transform-center-x="1.3684265"
       inkscape:transform-center-y="-13.441601"
       transform="matrix(-1.7930836,-3.105712,2.954604,-1.7058414,-708.0244,340.41313)" />
  </g>
</svg>
