<?xml version="1.0" encoding="UTF-8" standalone="no"?>
<!-- Created with Inkscape (http://www.inkscape.org/) -->

<svg
   xmlns:osb="http://www.openswatchbook.org/uri/2009/osb"
   xmlns:dc="http://purl.org/dc/elements/1.1/"
   xmlns:cc="http://creativecommons.org/ns#"
   xmlns:rdf="http://www.w3.org/1999/02/22-rdf-syntax-ns#"
   xmlns:svg="http://www.w3.org/2000/svg"
   xmlns="http://www.w3.org/2000/svg"
   xmlns:xlink="http://www.w3.org/1999/xlink"
   xmlns:sodipodi="http://sodipodi.sourceforge.net/DTD/sodipodi-0.dtd"
   xmlns:inkscape="http://www.inkscape.org/namespaces/inkscape"
   width="400"
   height="400"
   id="svg3347"
   version="1.1"
   inkscape:version="0.91 r13725"
   viewBox="-50 -50 500 500"
   sodipodi:docname="gravXY.svg">
  <script
     xlink:href="gravXY.js"
     id="script9738" />
  <defs
     id="defs3349">
    <marker
       inkscape:stockid="Arrow1Lstart"
       orient="auto"
       refY="0.0"
       refX="0.0"
       id="marker4736"
       style="overflow:visible"
       inkscape:isstock="true">
      <path
         id="path4738"
         d="M 0.0,0.0 L 5.0,-5.0 L -12.5,0.0 L 5.0,5.0 L 0.0,0.0 z "
         style="fill-rule:evenodd;stroke:#000000;stroke-width:1.0pt"
         transform="scale(0.8) translate(12.5,0)" />
    </marker>
    <marker
       inkscape:stockid="Arrow1Lend"
       orient="auto"
       refY="0.0"
       refX="0.0"
       id="marker4732"
       style="overflow:visible;"
       inkscape:isstock="true">
      <path
         id="path4734"
         d="M 0.0,0.0 L 5.0,-5.0 L -12.5,0.0 L 5.0,5.0 L 0.0,0.0 z "
         style="fill-rule:evenodd;stroke:#000000;stroke-width:1.0pt;"
         transform="scale(0.8) rotate(180) translate(12.5,0)" />
    </marker>
    <marker
       inkscape:stockid="Arrow1Mstart"
       orient="auto"
       refY="0.0"
       refX="0.0"
       id="marker4728"
       style="overflow:visible"
       inkscape:isstock="true">
      <path
         id="path4730"
         d="M 0.0,0.0 L 5.0,-5.0 L -12.5,0.0 L 5.0,5.0 L 0.0,0.0 z "
         style="fill-rule:evenodd;stroke:#000000;stroke-width:1.0pt"
         transform="scale(0.4) translate(10,0)" />
    </marker>
    <marker
       inkscape:stockid="Arrow1Mend"
       orient="auto"
       refY="0.0"
       refX="0.0"
       id="marker4724"
       style="overflow:visible;"
       inkscape:isstock="true">
      <path
         id="path4726"
         d="M 0.0,0.0 L 5.0,-5.0 L -12.5,0.0 L 5.0,5.0 L 0.0,0.0 z "
         style="fill-rule:evenodd;stroke:#000000;stroke-width:1.0pt;"
         transform="scale(0.4) rotate(180) translate(10,0)" />
    </marker>
    <marker
       inkscape:stockid="Arrow1Sstart"
       orient="auto"
       refY="0.0"
       refX="0.0"
       id="Arrow1Sstart"
       style="overflow:visible"
       inkscape:isstock="true">
      <path
         id="path4468"
         d="M 0.0,0.0 L 5.0,-5.0 L -12.5,0.0 L 5.0,5.0 L 0.0,0.0 z "
         style="fill-rule:evenodd;stroke:#000000;stroke-width:1.0pt"
         transform="scale(0.2) translate(6,0)" />
    </marker>
    <marker
       inkscape:stockid="Arrow1Mend"
       orient="auto"
       refY="0.0"
       refX="0.0"
       id="Arrow1Mend"
       style="overflow:visible;"
       inkscape:isstock="true">
      <path
         id="path4465"
         d="M 0.0,0.0 L 5.0,-5.0 L -12.5,0.0 L 5.0,5.0 L 0.0,0.0 z "
         style="fill-rule:evenodd;stroke:#000000;stroke-width:1.0pt;"
         transform="scale(0.4) rotate(180) translate(10,0)" />
    </marker>
    <marker
       inkscape:stockid="Arrow1Mstart"
       orient="auto"
       refY="0.0"
       refX="0.0"
       id="Arrow1Mstart"
       style="overflow:visible"
       inkscape:isstock="true">
      <path
         id="path4462"
         d="M 0.0,0.0 L 5.0,-5.0 L -12.5,0.0 L 5.0,5.0 L 0.0,0.0 z "
         style="fill-rule:evenodd;stroke:#000000;stroke-width:1.0pt"
         transform="scale(0.4) translate(10,0)" />
    </marker>
    <marker
       inkscape:stockid="Arrow1Lend"
       orient="auto"
       refY="0.0"
       refX="0.0"
       id="marker4715"
       style="overflow:visible;"
       inkscape:isstock="true">
      <path
         id="path4459"
         d="M 0.0,0.0 L 5.0,-5.0 L -12.5,0.0 L 5.0,5.0 L 0.0,0.0 z "
         style="fill-rule:evenodd;stroke:#000000;stroke-width:1.0pt;"
         transform="scale(0.8) rotate(180) translate(12.5,0)" />
    </marker>
    <marker
       inkscape:stockid="Arrow1Lstart"
       orient="auto"
       refY="0.0"
       refX="0.0"
       id="marker4712"
       style="overflow:visible"
       inkscape:isstock="true">
      <path
         id="path4456"
         d="M 0.0,0.0 L 5.0,-5.0 L -12.5,0.0 L 5.0,5.0 L 0.0,0.0 z "
         style="fill-rule:evenodd;stroke:#000000;stroke-width:1.0pt"
         transform="scale(0.8) translate(12.5,0)" />
    </marker>
    <linearGradient
       inkscape:collect="always"
       id="linearGradient4515">
      <stop
         style="stop-color:#000000;stop-opacity:1;"
         offset="0"
         id="stop4517" />
      <stop
         style="stop-color:#000000;stop-opacity:0;"
         offset="1"
         id="stop4519" />
    </linearGradient>
    <linearGradient
       inkscape:collect="always"
       id="linearGradient8202">
      <stop
         style="stop-color:#7a7a39;stop-opacity:1;"
         offset="0"
         id="stop8204" />
      <stop
         style="stop-color:#7a7a39;stop-opacity:0;"
         offset="1"
         id="stop8206" />
    </linearGradient>
    <linearGradient
       id="linearGradient4331"
       osb:paint="solid">
      <stop
         style="stop-color:#800000;stop-opacity:1;"
         offset="0"
         id="stop4333" />
    </linearGradient>
    <marker
       inkscape:stockid="Arrow1Lend"
       orient="auto"
       refY="0"
       refX="0"
       id="marker7634"
       style="overflow:visible"
       inkscape:isstock="true">
      <path
         id="path7636"
         d="M 0,0 5,-5 -12.5,0 5,5 0,0 Z"
         style="fill-rule:evenodd;stroke:#000000;stroke-width:1pt"
         transform="matrix(-0.8,0,0,-0.8,-10,0)"
         inkscape:connector-curvature="0" />
    </marker>
    <marker
       inkscape:stockid="Arrow1Lend"
       orient="auto"
       refY="0"
       refX="0"
       id="Arrow1Lend"
       style="overflow:visible"
       inkscape:isstock="true">
      <path
         id="path7359"
         d="M 0,0 5,-5 -12.5,0 5,5 0,0 Z"
         style="fill-rule:evenodd;stroke:#000000;stroke-width:1pt"
         transform="matrix(-0.8,0,0,-0.8,-10,0)"
         inkscape:connector-curvature="0" />
    </marker>
    <marker
       inkscape:stockid="Arrow1Lstart"
       orient="auto"
       refY="0"
       refX="0"
       id="Arrow1Lstart"
       style="overflow:visible"
       inkscape:isstock="true">
      <path
         id="path7356"
         d="M 0,0 5,-5 -12.5,0 5,5 0,0 Z"
         style="fill-rule:evenodd;stroke:#000000;stroke-width:1pt"
         transform="matrix(0.8,0,0,0.8,10,0)"
         inkscape:connector-curvature="0" />
    </marker>
    <linearGradient
       inkscape:collect="always"
       id="linearGradient7312">
      <stop
         style="stop-color:#800000;stop-opacity:1;"
         offset="0"
         id="stop7314" />
      <stop
         style="stop-color:#800000;stop-opacity:0;"
         offset="1"
         id="stop7316" />
    </linearGradient>
    <linearGradient
       inkscape:collect="always"
       id="linearGradient7298">
      <stop
         style="stop-color:#800000;stop-opacity:1;"
         offset="0"
         id="stop7300" />
      <stop
         style="stop-color:#800000;stop-opacity:0;"
         offset="1"
         id="stop7302" />
    </linearGradient>
    <inkscape:perspective
       sodipodi:type="inkscape:persp3d"
       inkscape:vp_x="100 : 100 : 1"
       inkscape:vp_y="0 : 1000 : 0"
       inkscape:vp_z="-60 : 120 : 1"
       inkscape:persp3d-origin="150 : 100 : 1"
       id="perspective3355" />
    <radialGradient
       inkscape:collect="always"
       xlink:href="#linearGradient7298"
       id="radialGradient7308"
       cx="100"
       cy="380"
       fx="100"
       fy="380"
       r="20.000114"
       gradientUnits="userSpaceOnUse"
       gradientTransform="matrix(5.8867928,0,0,5.8867928,-388.67926,-2236.9812)" />
    <linearGradient
       inkscape:collect="always"
       xlink:href="#linearGradient7312"
       id="linearGradient7320"
       x1="79.999886"
       y1="380"
       x2="120.00011"
       y2="380"
       gradientUnits="userSpaceOnUse"
       gradientTransform="matrix(5.8867928,0,0,5.8867928,-388.67926,-2236.9812)" />
    <radialGradient
       inkscape:collect="always"
       xlink:href="#linearGradient8202"
       id="radialGradient8210"
       cx="-317"
       cy="154.83476"
       fx="-317"
       fy="154.83476"
       r="5.4299927"
       gradientTransform="matrix(2.6852486,0,0,1.6225067,899.23091,-137.81332)"
       gradientUnits="userSpaceOnUse" />
    <linearGradient
       inkscape:collect="always"
       xlink:href="#linearGradient4515"
       id="linearGradient4521"
       x1="18.502234"
       y1="193.80034"
       x2="43.892254"
       y2="193.80034"
       gradientUnits="userSpaceOnUse" />
    <radialGradient
       inkscape:collect="always"
       xlink:href="#linearGradient7312"
       id="radialGradient7308-2"
       cx="100"
       cy="380"
       fx="100"
       fy="380"
       r="20.000114"
       gradientUnits="userSpaceOnUse"
       gradientTransform="matrix(5.4846937,-2.7423451,3.7499788,7.4999622,-1773.4613,-2575.751)" />
    <linearGradient
       inkscape:collect="always"
       xlink:href="#linearGradient7312"
       id="linearGradient7320-8"
       x1="97.961533"
       y1="367.76923"
       x2="120.00011"
       y2="380"
       gradientUnits="userSpaceOnUse"
       gradientTransform="matrix(6.1320755,0,0,6.1320755,-413.20754,-2330.1886)" />
    <linearGradient
       inkscape:collect="always"
       xlink:href="#linearGradient7312"
       id="linearGradient7320-0"
       x1="79.999886"
       y1="380"
       x2="112.23077"
       y2="404.46152"
       gradientUnits="userSpaceOnUse"
       gradientTransform="matrix(6.1320755,0,0,6.1320755,-413.20754,-2330.1886)" />
    <linearGradient
       inkscape:collect="always"
       xlink:href="#linearGradient7312"
       id="linearGradient4740"
       x1="85.660378"
       y1="-5.5879354e-006"
       x2="314.33963"
       y2="-5.5879354e-006"
       gradientUnits="userSpaceOnUse" />
  </defs>
  <sodipodi:namedview
     id="base"
     pagecolor="#ffffff"
     bordercolor="#666666"
     borderopacity="1.0"
     inkscape:pageopacity="0.0"
     inkscape:pageshadow="2"
     inkscape:zoom="1.5957196"
     inkscape:cx="105.01911"
     inkscape:cy="284.92561"
     inkscape:current-layer="controls"
     inkscape:document-units="px"
     showgrid="true"
     inkscape:window-width="1920"
     inkscape:window-height="976"
     inkscape:window-x="-8"
     inkscape:window-y="1072"
     inkscape:window-maximized="1"
     showguides="false"
     inkscape:snap-page="false">
    <inkscape:grid
       type="xygrid"
       id="grid3529" />
  </sodipodi:namedview>
  <metadata
     id="metadata3352">
    <rdf:RDF>
      <cc:Work
         rdf:about="">
        <dc:format>image/svg+xml</dc:format>
        <dc:type
           rdf:resource="http://purl.org/dc/dcmitype/StillImage" />
        <dc:title />
      </cc:Work>
    </rdf:RDF>
  </metadata>
  <g
     id="background"
     inkscape:label="background"
     inkscape:groupmode="layer"
     transform1="matrix(1,0,-0.249328,1,0,0)"
     transform="translate(0,200)">
    <path
       style="opacity:0.52899996;fill:none;fill-rule:evenodd;stroke:#808080;stroke-width:1.15469754px;stroke-linecap:butt;stroke-linejoin:miter;stroke-opacity:1"
       d="m 40.577348,-200.00001 c 0,400 0,400 0,400"
       id="path3533"
       inkscape:connector-curvature="0" />
    <path
       style="opacity:0.52899996;fill:none;fill-rule:evenodd;stroke:#808080;stroke-width:1.15469754px;stroke-linecap:butt;stroke-linejoin:miter;stroke-opacity:1"
       d="m 80.577148,-200.00001 c 0,400 0,400 0,400"
       id="path3533-6"
       inkscape:connector-curvature="0" />
    <path
       style="opacity:0.52899996;fill:none;fill-rule:evenodd;stroke:#808080;stroke-width:1.15469754px;stroke-linecap:butt;stroke-linejoin:miter;stroke-opacity:1"
       d="m 120.57694,-200.00001 c 0,400 0,400 0,400"
       id="path3533-5"
       inkscape:connector-curvature="0" />
    <path
       style="opacity:0.52899996;fill:none;fill-rule:evenodd;stroke:#808080;stroke-width:1.15469754px;stroke-linecap:butt;stroke-linejoin:miter;stroke-opacity:1"
       d="m 160.5767,-200.00001 c 0,400 0,400 0,400"
       id="path3533-6-1"
       inkscape:connector-curvature="0" />
    <path
       style="opacity:0.52899996;fill:none;fill-rule:evenodd;stroke:#808080;stroke-width:1.15469754px;stroke-linecap:butt;stroke-linejoin:miter;stroke-opacity:1"
       d="m 200.5765,-200.00001 c 0,400 0,400 0,400"
       id="path3533-8"
       inkscape:connector-curvature="0" />
    <path
       style="opacity:0.52899996;fill:none;fill-rule:evenodd;stroke:#808080;stroke-width:1.15469754px;stroke-linecap:butt;stroke-linejoin:miter;stroke-opacity:1"
       d="m 240.57628,-200.00001 c 0,400 0,400 0,400"
       id="path3533-6-5"
       inkscape:connector-curvature="0" />
    <path
       style="opacity:0.52899996;fill:none;fill-rule:evenodd;stroke:#808080;stroke-width:1.15469754px;stroke-linecap:butt;stroke-linejoin:miter;stroke-opacity:1"
       d="m 280.57606,-200.00001 c 0,400 0,400 0,400"
       id="path3533-5-6"
       inkscape:connector-curvature="0" />
    <path
       style="opacity:0.52899996;fill:none;fill-rule:evenodd;stroke:#808080;stroke-width:1.15469754px;stroke-linecap:butt;stroke-linejoin:miter;stroke-opacity:1"
       d="m 320.57586,-200.00001 c 0,400 0,400 0,400"
       id="path3533-6-5-1"
       inkscape:connector-curvature="0" />
    <path
       style="opacity:0.52899996;fill:none;fill-rule:evenodd;stroke:#808080;stroke-width:1.15469754px;stroke-linecap:butt;stroke-linejoin:miter;stroke-opacity:1"
       d="m 360.57564,-200.00001 c 0,400 0,400 0,400"
       id="path3533-5-6-9"
       inkscape:connector-curvature="0" />
    <path
       style="opacity:0.52899996;fill:none;fill-rule:evenodd;stroke:#808080;stroke-width:1.15469754px;stroke-linecap:butt;stroke-linejoin:miter;stroke-opacity:1"
       d="m 0,159.42265 c 400,0 400,0 400,0"
       id="path3533-0"
       inkscape:connector-curvature="0" />
    <path
       style="opacity:0.52899996;fill:none;fill-rule:evenodd;stroke:#808080;stroke-width:1.15469754px;stroke-linecap:butt;stroke-linejoin:miter;stroke-opacity:1"
       d="m 0,119.42285 c 400,0 400,0 400,0"
       id="path3533-6-3"
       inkscape:connector-curvature="0" />
    <path
       style="opacity:0.52899996;fill:none;fill-rule:evenodd;stroke:#808080;stroke-width:1.15469754px;stroke-linecap:butt;stroke-linejoin:miter;stroke-opacity:1"
       d="m 0,79.423068 c 400,0 400,0 400,0"
       id="path3533-5-66"
       inkscape:connector-curvature="0" />
    <path
       style="opacity:0.52899996;fill:none;fill-rule:evenodd;stroke:#808080;stroke-width:1.15469754px;stroke-linecap:butt;stroke-linejoin:miter;stroke-opacity:1"
       d="m 0,39.423308 c 400,0 400,0 400,0"
       id="path3533-6-1-8"
       inkscape:connector-curvature="0" />
    <path
       style="opacity:0.52899996;fill:none;fill-rule:evenodd;stroke:#808080;stroke-width:1.15469754px;stroke-linecap:butt;stroke-linejoin:miter;stroke-opacity:1"
       d="m 0,-0.57649522 c 400,0 400,0 400,0"
       id="path3533-8-4"
       inkscape:connector-curvature="0" />
    <path
       style="opacity:0.52899996;fill:none;fill-rule:evenodd;stroke:#808080;stroke-width:1.15469754px;stroke-linecap:butt;stroke-linejoin:miter;stroke-opacity:1"
       d="m 0,-40.576275 c 400,0 400,0 400,0"
       id="path3533-6-5-6"
       inkscape:connector-curvature="0" />
    <path
       style="opacity:0.52899996;fill:none;fill-rule:evenodd;stroke:#808080;stroke-width:1.15469754px;stroke-linecap:butt;stroke-linejoin:miter;stroke-opacity:1"
       d="m 0,-80.576055 c 400,0 400,0 400,0"
       id="path3533-5-6-94"
       inkscape:connector-curvature="0" />
    <path
       style="opacity:0.52899996;fill:none;fill-rule:evenodd;stroke:#808080;stroke-width:1.15469754px;stroke-linecap:butt;stroke-linejoin:miter;stroke-opacity:1"
       d="m 0,-120.57586 c 400,0 400,0 400,0"
       id="path3533-6-5-1-0"
       inkscape:connector-curvature="0" />
    <path
       style="opacity:0.52899996;fill:none;fill-rule:evenodd;stroke:#808080;stroke-width:1.15469754px;stroke-linecap:butt;stroke-linejoin:miter;stroke-opacity:1"
       d="m 0,-160.57564 c 400,0 400,0 400,0"
       id="path3533-5-6-9-4"
       inkscape:connector-curvature="0" />
    <path
       sodipodi:type="spiral"
       style="opacity:0.125;fill:none;fill-rule:evenodd;stroke:#000000;stroke-width:2px;stroke-linecap:butt;stroke-linejoin:miter;stroke-opacity:1"
       id="path4466"
       sodipodi:cx="200"
       sodipodi:cy="-1.2218952e-005"
       sodipodi:expansion="1"
       sodipodi:revolution="3"
       sodipodi:radius="210.23796"
       sodipodi:argument="-16.150337"
       sodipodi:t0="0"
       d="M 200,-1.2218952e-5 C 190.4737,4.512442 189.21736,-10.614987 192.5,-15.833348 c 8.89576,-14.141434 29.45105,-9.584311 39.16667,0.833344 17.37897,18.6347425 9.65393,48.148524 -9.16668,62.499998 C 194.87998,68.561359 155.36598,57.320671 136.66666,29.999971 111.7434,-6.4142261 126.63215,-56.226248 162.50002,-79.166689 207.63608,-108.03489 267.87043,-89.44055 295.00001,-44.999986 327.85758,8.8234908 305.52821,79.544097 252.49997,110.83334 190.00802,147.70662 108.76379,121.62532 73.333317,59.999953 32.427437,-11.148971 62.271249,-102.94063 132.50004,-142.50003 c 79.79841,-44.94991 182.1536,-11.33655 225.83331,67.500061 49.00204,88.44276 11.61422,201.372909 -75.8334,249.166649 C 185.41653,227.22679 61.903021,186.06093 9.9999752,89.999936" />
    <ellipse
       style="opacity:1;fill:url(#radialGradient7308);fill-opacity:1;stroke:url(#linearGradient7320);stroke-width:58.86792755;stroke-linecap:butt;stroke-linejoin:round;stroke-miterlimit:4;stroke-dasharray:none;stroke-dashoffset:0;stroke-opacity:0.75324079"
       id="path7286"
       cx="200"
       cy="-1.2218952e-005"
       r="90.56604" />
    <rect
       style="opacity:1;fill:#800000;fill-opacity:1;stroke:#800000;stroke-width:17.41499875;stroke-linecap:butt;stroke-linejoin:bevel;stroke-miterlimit:4;stroke-dasharray:104.48999249,17.41499875;stroke-dashoffset:15.67349888;stroke-opacity:0.75324079"
       id="rect7322"
       width="362.58472"
       height="22.584728"
       x="18.707642"
       y="-11.292371" />
    <rect
       style="opacity:1;fill:#800000;fill-opacity:1;stroke:#800000;stroke-width:17.41527174;stroke-linecap:butt;stroke-linejoin:bevel;stroke-miterlimit:4;stroke-dasharray:139.3221739,17.41527174;stroke-dashoffset:52.24581521;stroke-opacity:0.75324079"
       id="rect7322-8"
       width="362.58472"
       height="22.584728"
       x="-181.29234"
       y="188.70764"
       transform="matrix(0,-1,1,0,0,0)" />
    <ellipse
       style="opacity:1;fill:url(#radialGradient7308-2);fill-opacity:1;stroke:url(#linearGradient7320-8);stroke-width:61.320755;stroke-linecap:butt;stroke-linejoin:round;stroke-miterlimit:4;stroke-dasharray:none;stroke-dashoffset:0;stroke-opacity:0.75324079"
       id="path7286-4"
       cx="200"
       cy="-5.5879354e-006"
       r="94.339622" />
    <circle
       style="opacity:1;fill:url(#linearGradient4740);fill-opacity:1;stroke:url(#linearGradient7320-0);stroke-width:39.9999994;stroke-linecap:butt;stroke-linejoin:miter;stroke-miterlimit:4;stroke-dasharray:159.99999762, 39.99999940000000000;stroke-dashoffset:31.99999952;stroke-opacity:0.75324079"
       id="path7286-1"
       cx="200"
       cy="-5.5879354e-006"
       r="94.339622" />
  </g>
  <filter
     id="i1"
     width="1.5"
     height="1.5">
    <feOffset
       result="offOut"
       in="SourceGraphic"
       dx="8"
       dy="5"
       id="feOffset9608" />
    <feColorMatrix
       result="matrixOut"
       in="offOut"
       type="matrix"
       values="0.2 0 0 0 0 0 0.2 0 0 0 0 0 0.2 0 0 0 0 0 1 0"
       id="feColorMatrix9610" />
    <feGaussianBlur
       result="blurOut"
       in="matrixOut"
       stdDeviation="1"
       id="feGaussianBlur9612" />
    <feBlend
       in="SourceGraphic"
       in2="blurOut"
       mode="normal"
       id="feBlend9614" />
  </filter>
  <g
     id="controls"
     inkscape:label="controls"
     inkscape:groupmode="layer"
     transform1="matrix(1,0,-0.249328,1,0,0)"
     style="filter:url(#i1);-webkit-touch-callout: none;-webkit-user-select: none;-khtml-user-select: none;-moz-user-select: none;-ms-user-select: none;user-select: none;"
     transform="translate(-200,0)">
    <flowRoot
       xml:space="preserve"
       id="flowRoot9051"
       style="font-style:normal;font-weight:normal;font-size:40px;line-height:125%;font-family:sans-serif;letter-spacing:0px;word-spacing:0px;fill:#000000;fill-opacity:1;stroke:none;stroke-width:1px;stroke-linecap:butt;stroke-linejoin:miter;stroke-opacity:1"><flowRegion
         id="flowRegion9053"><rect
           id="rect9055"
           width="100"
           height="80"
           x="-20"
           y="25" /></flowRegion><flowPara
         id="flowPara9057" /></flowRoot>    <circle
       style="opacity:0.673;fill:#cfb9b8;fill-opacity:1;fill-rule:evenodd;stroke:#ffffff;stroke-width:0.60000002;stroke-linecap:butt;stroke-linejoin:miter;stroke-miterlimit:4;stroke-dasharray:none;stroke-dashoffset:0;stroke-opacity:1"
       id="path9067"
       cx="65.300003"
       cy="134.7"
       r="65" />
    <path
       id="cannon-tip"
       style="fill:#4e4f50;fill-opacity:1;stroke:url(#radialGradient8210);stroke-width:0;stroke-linecap:round;stroke-linejoin:round;stroke-miterlimit:4;stroke-dasharray:none;stroke-dashoffset:0;stroke-opacity:1"
       d="m 58.861778,99.492989 0.412911,0 0,1.432461 -0.412911,0 z m -1.462548,9.639551 0.862663,0.0472 c 0.480418,1.42754 0.08029,2.73376 -1.240424,3.70068 -1.488271,1.08962 -3.276567,2.13888 -3.794524,2.1551 l -17.596811,0.006 c -0.517958,-0.018 -2.306253,-1.06546 -3.794497,-2.15508 -1.320713,-0.96692 -1.720842,-2.27652 -1.240425,-3.70408 l 0.862637,-0.0438 c -0.259664,1.33568 -0.483614,2.23716 1.133282,3.15184 1.323398,0.74862 2.722251,1.6398 2.94032,1.69376 l 17.794177,-0.002 c 0.218042,-0.054 1.614102,-0.94852 2.9375,-1.69714 1.616923,-0.91466 1.395685,-1.81616 1.136102,-3.15182 z m 2.045327,-9.633531 0,1.464101 -12.016031,0.48804 0,-1.974341 12.016031,0.0222 z m -4.39312,10.955251 c 0,0.6945 0.470563,1.258 1.052027,1.25974 0.581437,0.002 1.054362,-0.55894 1.057289,-1.25344 0.0023,-0.69448 -0.4653,-1.26082 -1.04671,-1.26604 -0.581409,-0.006 -1.056699,0.5526 -1.062552,1.24706 m -23.29805,0.012 c 0,0.6945 0.470563,1.258 1.052,1.25974 0.581464,0.002 1.054389,-0.55894 1.05729,-1.25344 0.0023,-0.69448 -0.465273,-1.26082 -1.04671,-1.26604 -0.581411,-0.006 -1.056699,0.5526 -1.062526,1.24706 m 2.565164,1.03972 c 0,1.21838 0.825526,2.20692 1.845572,2.21 1.01999,0.004 1.84968,-0.98052 1.854808,-2.19892 0.0054,-1.21836 -0.816262,-2.21186 -1.836254,-2.22104 -1.019992,-0.008 -1.853788,0.96942 -1.864046,2.18776 m 4.156201,-0.0934 c 0,1.2184 0.825554,2.20694 1.845572,2.21 1.020019,0.004 1.849679,-0.98054 1.854808,-2.19892 0.0054,-1.21836 -0.816235,-2.21186 -1.836253,-2.22104 -1.019965,-0.01 -1.853789,0.96942 -1.86402,2.18776 m 4.188667,0.0222 c 0,1.2184 0.825552,2.20694 1.845571,2.21 1.020018,0.004 1.84968,-0.98054 1.854809,-2.19892 0.0054,-1.21836 -0.816236,-2.21186 -1.836227,-2.22104 -1.020019,-0.01 -1.853789,0.96942 -1.864046,2.18776 m 4.091245,0.0222 c 0,1.2184 0.825552,2.20694 1.845571,2.21 1.020018,0.004 1.849706,-0.98054 1.854835,-2.19892 0.0054,-1.21836 -0.816261,-2.21186 -1.83628,-2.22104 -1.019964,-0.01 -1.853788,0.96942 -1.864019,2.18776 m 4.164256,0.0222 c 0,1.2184 0.825554,2.20694 1.845572,2.21 1.020019,0.004 1.84968,-0.98054 1.854808,-2.19892 0.0054,-1.21836 -0.816234,-2.21186 -1.836226,-2.22104 -1.019992,-0.01 -1.853788,0.96942 -1.864045,2.18776 m 8.171935,-2.85716 -28.721526,0.0614 0.0054,-6.37921 8.237377,2.1599 11.984801,0 8.494489,2.71241 c 0.500423,0.24174 0.666264,1.4455 0,1.4455 z m -20.332165,-4.88625 6.370887,0 1.955425,-1.25574 0,-3.541201 -12.531492,-1.381338 0,4.621159 4.20518,0.9795 0,0.57762 z"
       inkscape:connector-curvature="0" />
    <text
       xml:space="preserve"
       style="font-style:normal;font-weight:normal;font-size:12px;line-height:125%;font-family:sans-serif;letter-spacing:0px;word-spacing:0px;fill:#000000;fill-opacity:1;stroke:none;stroke-width:1;stroke-linecap:butt;stroke-linejoin:miter;stroke-miterlimit:4;stroke-dasharray:none;stroke-opacity:1"
       x="71.92086"
       y="107.37483"
       id="text-ax-caption"
       sodipodi:linespacing="125%"><tspan
         style="font-style:italic;font-variant:normal;font-weight:bold;font-stretch:normal;font-family:sans-serif;-inkscape-font-specification:'sans-serif Bold Italic';fill:#000000;fill-opacity:1"
         id="tspan9882">Wind (ax)</tspan></text>
    <text
       xml:space="preserve"
       style="font-style:normal;font-weight:normal;font-size:12px;line-height:125%;font-family:sans-serif;letter-spacing:0px;word-spacing:0px;fill:#000000;fill-opacity:1;stroke:none;stroke-width:1px;stroke-linecap:butt;stroke-linejoin:miter;stroke-opacity:1"
       x="27.774948"
       y="166.99164"
       id="text-ay-caption"
       sodipodi:linespacing="125%"><tspan
         style="font-style:italic;font-variant:normal;font-weight:bold;font-stretch:normal;font-size:9.375px;font-family:sans-serif;-inkscape-font-specification:'sans-serif Bold Italic';fill:#000000;fill-opacity:1"
         id="tspan9876">Gravity (ay)</tspan></text>
    <text
       xml:space="preserve"
       style="font-style:normal;font-weight:normal;font-size:12px;line-height:125%;font-family:sans-serif;letter-spacing:0px;word-spacing:0px;fill:#000000;fill-opacity:1;stroke:none;stroke-width:1px;stroke-linecap:butt;stroke-linejoin:miter;stroke-opacity:1"
       x="17.199781"
       y="128.80354"
       id="text-tank-count-caption"
       sodipodi:linespacing="125%"><tspan
         style="font-style:italic;font-variant:normal;font-weight:bold;font-stretch:normal;font-size:9.375px;font-family:sans-serif;-inkscape-font-specification:'sans-serif Bold Italic';fill:#782d39;fill-opacity:1"
         id="tspan10626">To Go</tspan></text>
    <text
       xml:space="preserve"
       style="font-style:normal;font-weight:bold;font-size:16px;line-height:125%;font-family:sans-serif;letter-spacing:0px;word-spacing:0px;fill:#000000;fill-opacity:1;stroke:none;stroke-width:1;stroke-linecap:butt;stroke-linejoin:miter;stroke-miterlimit:4;stroke-dasharray:none;stroke-opacity:1"
       x="71.575279"
       y="129.66664"
       id="text-ax-value"
       sodipodi:linespacing="125%">2.1px/s</text>
    <text
       xml:space="preserve"
       style="font-style:normal;font-weight:bold;font-size:16px;line-height:125%;font-family:sans-serif;letter-spacing:0px;word-spacing:0px;fill:#000000;fill-opacity:1;stroke:none;stroke-width:1px;stroke-linecap:butt;stroke-linejoin:miter;stroke-opacity:1"
       x="27.475014"
       y="185.95425"
       id="text-ay-value"
       sodipodi:linespacing="125%">-1.1px/s</text>
    <text
       xml:space="preserve"
       style="font-style:normal;font-weight:bold;font-size:16px;line-height:125%;font-family:sans-serif;letter-spacing:0px;word-spacing:0px;fill:#000000;fill-opacity:1;stroke:none;stroke-width:1px;stroke-linecap:butt;stroke-linejoin:miter;stroke-opacity:1"
       x="14.458364"
       y="115.22494"
       id="text-tank-count"
       sodipodi:linespacing="125%">4</text>
    <path
       sodipodi:type="star"
       style="opacity:1;fill:none;fill-opacity:1;stroke:#b23fb9;stroke-width:0.57178187;stroke-linecap:butt;stroke-linejoin:bevel;stroke-miterlimit:4;stroke-dasharray:none;stroke-dashoffset:0;stroke-opacity:0.75324079"
       id="path5280"
       sodipodi:sides="3"
       sodipodi:cx="-57.939648"
       sodipodi:cy="226.06424"
       sodipodi:r1="18.027756"
       sodipodi:r2="0.18027756"
       sodipodi:arg1="0.5880026"
       sodipodi:arg2="1.6352002"
       inkscape:flatsided="false"
       inkscape:rounded="0.05"
       inkscape:randomized="0"
       d="m -42.939648,236.06424 c -0.497519,0.74628 -14.116547,-9.76237 -15.011602,-9.8201 -0.895056,-0.0577 -15.751115,8.61448 -16.148651,7.81048 -0.397537,-0.804 15.512735,-7.3441 16.010253,-8.09038 0.497519,-0.74628 0.415199,-17.94811 1.310254,-17.89038 0.895056,0.0577 -1.396188,17.10647 -0.998651,17.91048 0.397536,0.804 15.335916,9.33362 14.838397,10.0799 z"
       inkscape:transform-center-x="1.3684265"
       inkscape:transform-center-y="-13.441601"
       transform="matrix(-1.7930836,-3.105712,2.954604,-1.7058414,-708.0244,340.41313)" />
    <path
       style="fill:none;fill-rule:evenodd;stroke:url(#linearGradient4521);stroke-width:1.24999998;stroke-linecap:butt;stroke-linejoin:miter;stroke-opacity:1;stroke-miterlimit:4;stroke-dasharray:none"
       d="m 18.942757,181.44251 24.691786,24.53401 0,0"
       id="path4478"
       inkscape:connector-curvature="0" />
  </g>
</svg>
